<svg width="60" height="158" viewBox="0 0 60 158" fill="none" xmlns="http://www.w3.org/2000/svg">
<path d="M45.9237 44.6597L45.5109 28.757C45.4616 24.53 43.7368 20.3981 40.7161 17.27C37.6954 14.142 33.6261 12.2741 29.4035 12.0773C25.1808 11.8805 21.1507 13.3709 18.1997 16.2206C15.2488 19.0704 13.6186 23.046 13.6679 27.2729L14.1053 68.6632C14.1461 72.7278 15.7464 76.7121 18.5749 79.7919C21.4035 82.8718 25.244 84.8113 29.3018 85.2094L30.3036 85.3472C32.011 85.4448 33.6492 86.217 34.8578 87.4939C36.0663 88.7707 36.7464 90.4476 36.7482 92.1556C36.75 93.8637 36.0736 95.463 34.8676 96.6017C33.6616 97.7404 32.0249 98.3252 30.3175 98.2275C29.7297 98.2754 29.1381 98.2934 28.545 98.2815C21.2774 97.4378 14.4411 93.8717 9.42082 88.3055C4.40056 82.7394 1.57169 75.5893 1.50722 68.3036L0.793731 26.6274C1.02158 19.2086 4.11091 12.3319 9.41657 7.43353C14.7222 2.53514 21.8339 -0.00623096 29.2666 0.340166C36.6992 0.686562 43.8779 3.89394 49.3037 9.29247C54.7295 14.691 57.9827 21.8632 58.384 29.3114L58.7476 44.8933C58.6959 46.5164 58.0305 48.0238 56.8852 49.1122C55.7399 50.2006 54.1998 50.7892 52.5747 50.7596C50.9496 50.73 49.3602 50.0844 48.1262 48.9527C46.8922 47.8209 46.1052 46.2871 45.9237 44.6597ZM31.099 157.429C23.4691 157.049 16.1233 153.664 10.6653 148.012C5.2073 142.36 2.08053 134.901 1.96767 127.262L1.60404 111.681C1.65573 110.057 2.32116 108.55 3.46645 107.462C4.61173 106.373 6.15186 105.785 7.77696 105.814C9.40205 105.844 10.9915 106.489 12.2255 107.621C13.4595 108.753 14.2464 110.287 14.4279 111.914L14.6567 127.626C14.706 131.853 16.4307 135.985 19.4515 139.113C22.4722 142.241 26.5414 144.109 30.7641 144.306C34.9867 144.503 39.0168 143.012 41.9678 140.163C44.9188 137.313 46.5489 133.337 46.4996 129.11L46.0623 87.72C46.0214 83.6554 44.4212 79.6711 41.5926 76.5913C38.764 73.5115 34.9236 71.5719 30.8658 71.1738L29.8639 71.0361C28.1566 70.9384 26.5184 70.1662 25.3098 68.8894C24.1012 67.6125 23.4212 65.9356 23.4194 64.2276C23.4175 62.5195 24.094 60.9202 25.3 59.7815C26.506 58.6428 28.1427 58.058 29.8501 58.1557C30.5183 58.1793 31.1869 58.2409 31.8527 58.34C39.1149 59.1984 45.9425 62.7686 50.9597 68.3313C55.9769 73.8941 58.8108 81.0359 58.8904 88.3179L59.3738 129.756C59.4875 137.395 56.5779 144.592 51.2804 149.777C45.9829 154.962 38.7277 157.713 31.099 157.429Z" fill="url(#paint0_linear_18_12)"/>
<defs>
<linearGradient id="paint0_linear_18_12" x1="-14.5211" y1="121.931" x2="74.7945" y2="35.6799" gradientUnits="userSpaceOnUse">
<stop stop-color="#65B0E5"/>
<stop offset="1" stop-color="#C465E5"/>
</linearGradient>
</defs>
</svg>
