<svg width="35" height="31" viewBox="0 0 35 31" fill="none" xmlns="http://www.w3.org/2000/svg">
<g clip-path="url(#clip0_22_96)">
<path d="M15.2531 20.2945L15.333 22.5496C15.3447 23.1491 15.6197 23.7325 16.0974 24.1715C16.5752 24.6105 17.2166 24.8691 17.8806 24.8904C18.5446 24.9118 19.1767 24.6941 19.6379 24.2852C20.0991 23.8764 20.3516 23.3099 20.3399 22.7104L20.2323 16.84C20.2221 16.2635 19.9668 15.7009 19.5193 15.2684C19.0718 14.836 18.4662 14.5668 17.828 14.5167L17.6704 14.4987C17.4019 14.4875 17.1437 14.3806 16.9525 14.2013C16.7613 14.0221 16.6528 13.7853 16.651 13.543C16.6491 13.3007 16.7539 13.0728 16.9424 12.9094C17.1309 12.746 17.3877 12.6605 17.6561 12.6717C17.7485 12.664 17.8415 12.6605 17.9347 12.6613C19.0779 12.7696 20.1559 13.2648 20.9503 14.0465C21.7447 14.8282 22.1961 15.838 22.213 16.8714L22.3643 22.7819C22.3354 23.8346 21.8562 24.8149 21.0268 25.5179C20.1974 26.221 19.0818 26.5926 17.9131 26.5551C16.7444 26.5175 15.6129 26.0738 14.755 25.3165C13.897 24.5592 13.3789 23.5469 13.3088 22.491L13.2371 20.2814C13.2437 20.051 13.3469 19.8362 13.5259 19.68C13.7049 19.5238 13.9464 19.4379 14.2019 19.4396C14.4574 19.4413 14.7079 19.5304 14.9029 19.689C15.0979 19.8476 15.2231 20.0639 15.2531 20.2945ZM17.4778 4.27542C18.6775 4.31733 19.8354 4.78605 20.6987 5.57924C21.562 6.37243 22.0605 7.42567 22.0854 8.50899L22.1571 10.7187C22.1505 10.949 22.0473 11.1638 21.8683 11.32C21.6893 11.4762 21.4478 11.5621 21.1923 11.5604C20.9368 11.5587 20.6863 11.4696 20.4913 11.311C20.2963 11.1524 20.1711 10.9361 20.1411 10.7055L20.0904 8.47717C20.0787 7.87768 19.8037 7.29426 19.3259 6.85527C18.8481 6.41627 18.2067 6.15767 17.5427 6.13634C16.8788 6.11501 16.2467 6.33271 15.7854 6.74154C15.3242 7.15037 15.0717 7.71684 15.0834 8.31634L15.191 14.1867C15.2012 14.7632 15.4565 15.3259 15.904 15.7583C16.3516 16.1908 16.9571 16.4599 17.5953 16.5101L17.7529 16.528C18.0214 16.5392 18.2796 16.6462 18.4708 16.8254C18.662 17.0047 18.7705 17.2415 18.7724 17.4837C18.7743 17.726 18.6694 17.9539 18.4809 18.1173C18.2924 18.2807 18.0357 18.3662 17.7672 18.3551C17.6621 18.3527 17.557 18.3451 17.4522 18.332C16.3098 18.2216 15.2332 17.7258 14.4393 16.9446C13.6454 16.1634 13.1933 15.1547 13.1739 14.1219L13.0591 8.24486C13.034 7.16151 13.4847 6.13603 14.3125 5.39232C15.1404 4.64861 16.2783 4.24708 17.4778 4.27542Z" fill="url(#paint0_linear_22_96)"/>
</g>
<defs>
<linearGradient id="paint0_linear_22_96" x1="24.6823" y1="9.2395" x2="12.1275" y2="22.9035" gradientUnits="userSpaceOnUse">
<stop stop-color="#6077F0"/>
<stop offset="0.9998" stop-color="#A8C7F5"/>
</linearGradient>
<clipPath id="clip0_22_96">
<rect width="23.7241" height="22.5355" fill="white" transform="matrix(-0.736362 -0.676588 -0.748322 0.663336 34.8638 16.0514)"/>
</clipPath>
</defs>
</svg>
