<svg width="140" height="133" viewBox="0 0 140 133" fill="none" xmlns="http://www.w3.org/2000/svg">
<path opacity="0.1" d="M124 89.8277C124.022 103.283 119.379 116.362 110.805 127H66.3142C70.6748 122.899 73.405 117.028 73.405 110.511C73.405 99.8715 66.1306 90.9596 56.3643 88.64L65.0818 63.0695L52.0509 53.88L36.4244 69.3683C31.5902 67.5197 26.2573 67.251 21.2484 68.6037C16.2396 69.9563 11.833 72.8551 8.70848 76.853C6.33013 74.5932 3.29297 73.0818 0 72.5194C7.75783 47.3559 31.9983 29 60.6976 29C95.6587 29 124 56.2328 124 89.8277Z" fill="#626BBF"/>
<path d="M97.1611 68C97.1611 68 94.4 65.8536 94.018 61.2722C93.7223 57.725 97.1611 60.2186 97.1611 60.2186C97.1611 60.2186 96.9757 57.6625 99.0114 58.0376C101.047 58.4126 102 61.1434 102 61.1434" fill="#0C0C0C"/>
<path d="M108 59C108 59 118.552 60.5049 113.745 72H110.883" fill="#0C0C0C"/>
<path d="M98 85.0603C98.0418 85.0549 98.5061 92.6185 107.454 91.9593C113.649 91.5035 115.858 85.0497 116 85.0497C115.332 84.9103 114.207 84.7075 113.911 84.552C112.935 84.0373 111.728 83.5019 111.414 81.6418C111.233 80.5696 111.54 75.0849 111.445 74L101.936 76.084C102.069 78.375 102.999 83.6862 99.7398 84.626C99.1975 84.7815 98.6134 84.9245 98 85.0603Z" fill="#FAA896"/>
<path opacity="0.52" d="M102 82C102.14 81.6006 102.229 81.1888 102.268 80.7719C102.366 79.8208 102.346 78.8631 102.21 77.9157C104.02 77.6988 105.726 77.0351 107.133 76C107.298 76.5425 108.208 78.9134 107.956 79.4291C107.48 80.4038 105.243 82 102 82Z" fill="#0C0C0C"/>
<path d="M103.801 80.9965C107.558 80.9141 112.187 78.9087 112.591 73.9783L112.955 69.5297C113.359 64.5993 111.025 60.3959 106.257 60.0254C101.487 59.6551 97.5948 63.3742 97.1912 68.3053L97.0297 70.2748C96.9863 70.952 96.9905 71.6313 97.0421 72.308C97.1648 74.0976 97.3587 76.8179 98.4699 78.7221C99.5182 80.5204 101.4 81.0491 103.801 80.9965Z" fill="#FAA896"/>
<path d="M98.5 71C98.7761 71 99 70.7761 99 70.5C99 70.2239 98.7761 70 98.5 70C98.2239 70 98 70.2239 98 70.5C98 70.7761 98.2239 71 98.5 71Z" fill="#0C0C0C"/>
<path d="M104 71C104.552 71 105 70.7761 105 70.5C105 70.2239 104.552 70 104 70C103.448 70 103 70.2239 103 70.5C103 70.7761 103.448 71 104 71Z" fill="#0C0C0C"/>
<path d="M111.513 74.9939C113.273 75.1039 114.85 73.7176 114.99 72.3384C115.13 70.9593 113.781 70.1096 112.021 70L111.021 70.8675L110 74.8998L111.513 74.9939Z" fill="#FAA896"/>
<path d="M110.891 73C110.891 73 110.881 66.2998 108.68 65.7524C107.213 65.3878 103.467 67.0795 100.171 66.2998C98.7285 65.9587 97.3175 66.2021 97.1301 66.8187C97.0554 67.0629 96.4091 63.4506 98.8963 60.8892C100.876 58.8502 106.882 58.6043 109.542 59.4746C116.906 61.8822 112.926 70.6896 112.926 70.6896L112.422 72.9687L110.891 73Z" fill="#0C0C0C"/>
<g opacity="0.52">
<path d="M101.154 74.5646H101.145C100.679 74.5299 99.9009 74.4229 99.9279 74.09C99.9504 73.8139 100.981 70.8932 101.099 70.5612C101.11 70.5336 101.132 70.5112 101.16 70.4987C101.188 70.4861 101.219 70.4844 101.249 70.4938C101.278 70.5032 101.302 70.5231 101.316 70.5493C101.33 70.5754 101.333 70.6058 101.325 70.634C100.867 71.9274 100.181 73.9198 100.165 74.1073C100.205 74.1894 100.681 74.3021 101.164 74.3377C101.195 74.34 101.223 74.3535 101.244 74.3754C101.264 74.3974 101.275 74.426 101.274 74.4553C101.273 74.4847 101.26 74.5125 101.238 74.5329C101.215 74.5533 101.186 74.5648 101.155 74.565L101.154 74.5646Z" fill="#0C0C0C"/>
</g>
<path d="M100.309 75.669C101.799 75.7869 103.304 75.561 104.586 75.0269C104.63 75.0085 104.681 74.9992 104.733 75.0001C104.785 75.0009 104.836 75.0118 104.879 75.0316C104.922 75.0514 104.956 75.0792 104.977 75.1118C104.998 75.1444 105.005 75.1804 104.997 75.2155C104.854 75.8179 104.338 76.9173 102.476 76.9971C101.273 77.0488 100.451 76.3897 100.044 75.9566C100.016 75.9266 100 75.8917 100 75.8559C99.9996 75.8201 100.014 75.785 100.042 75.7547C100.07 75.7244 100.11 75.7002 100.157 75.6851C100.204 75.6699 100.257 75.6643 100.309 75.669Z" fill="white"/>
<path d="M103.852 60.8464C104.287 59.3613 103.784 57.9285 102.728 57.6461C101.672 57.3637 100.463 58.3387 100.028 59.8238C99.5929 61.3089 100.096 62.7417 101.152 63.0241C102.208 63.3065 103.417 62.3315 103.852 60.8464Z" fill="#0C0C0C"/>
<path d="M107.715 89.354C114.033 89.0724 114.299 84.0018 114.299 84.0018C114.299 84.0018 117.429 84.193 119.511 84.4593C122.917 84.8951 125.165 85.9876 126.954 87.6788C128.617 89.2522 129.63 90.9543 128.558 101.822C127.782 109.69 128.329 127 128.329 127H90.1993C90.1993 127 87.9128 104.313 87.5943 100.771C86.9859 94.0086 86.492 88.1177 87.9766 86.7137C91.0291 83.8274 97.0201 84.0018 99.6438 84.0021C99.6866 84.0021 99.1116 89.7376 107.715 89.354Z" fill="#626BBF"/>
<path d="M52.5569 126.874L80.0224 127C81.3401 126.911 82.6031 126.474 83.6627 125.739C84.7223 125.005 85.5342 124.003 86.0028 122.854L99.5491 94.8787C100.201 93.2789 100.144 91.5035 99.39 89.943C98.6359 88.3825 97.2468 87.1648 95.5282 86.5576C91.949 85.2933 88.4154 86.1432 87.0573 89.4745L74.6111 114.427L52 114.769C52 114.769 52.3872 126.885 52.5569 126.874Z" fill="#626BBF"/>
<path d="M83.7614 115.094L89.2332 113.261L88.4476 113.209C88.1944 113.188 87.9592 113.075 87.7895 112.894C87.6199 112.713 87.5284 112.477 87.5337 112.235C87.5409 112.109 87.5747 111.987 87.6331 111.874C87.6916 111.762 87.7733 111.662 87.8735 111.581C87.9737 111.5 88.0901 111.439 88.2157 111.402C88.3413 111.365 88.4734 111.354 88.604 111.367L98.2847 112.35L98.0332 115.322C97.9551 116.246 97.5901 117.126 96.9851 117.849C96.3802 118.573 95.5627 119.108 94.6376 119.385L90.4463 120.633C90.2298 120.702 89.995 120.697 89.7817 120.619C89.5684 120.542 89.3897 120.396 89.2758 120.207C89.1768 120.035 89.1381 119.836 89.1654 119.641C89.1927 119.446 89.2846 119.264 89.4276 119.123C89.4184 119.116 89.4106 119.108 89.4047 119.099C89.3988 119.09 89.395 119.08 89.3934 119.069C89.3918 119.058 89.3925 119.047 89.3955 119.037C89.3985 119.026 89.4037 119.016 89.4107 119.008L88.6379 119.239C88.3969 119.317 88.1342 119.304 87.9028 119.203C87.6714 119.102 87.4887 118.921 87.3915 118.697C87.3121 118.494 87.3102 118.27 87.3863 118.065C87.4624 117.86 87.6117 117.688 87.8077 117.578C87.7987 117.573 87.7907 117.567 87.7839 117.56L87.4664 117.655C87.2498 117.724 87.0151 117.719 86.8018 117.642C86.5885 117.564 86.4097 117.419 86.2959 117.23C86.1756 117.02 86.145 116.774 86.2103 116.544C86.2757 116.313 86.432 116.116 86.6465 115.993C86.6448 115.986 86.6438 115.98 86.6436 115.974L84.3649 116.737C84.1368 116.813 83.8862 116.8 83.6683 116.7C83.4505 116.6 83.2831 116.421 83.2032 116.203C83.1232 115.985 83.1371 115.746 83.2419 115.538C83.3467 115.33 83.5337 115.17 83.7619 115.093L83.7614 115.094Z" fill="#FAA896"/>
<path opacity="0.2" d="M86.7325 116.059C86.743 116.059 86.7536 116.057 86.7635 116.054L88.9677 115.288C88.9904 115.28 89.0088 115.264 89.019 115.243C89.0292 115.222 89.0303 115.198 89.022 115.177C89.0138 115.155 88.9969 115.137 88.9751 115.128C88.9533 115.118 88.9283 115.117 88.9056 115.125L86.7014 115.891C86.6813 115.898 86.6645 115.911 86.6538 115.929C86.6431 115.946 86.6393 115.967 86.643 115.987C86.6467 116.007 86.6577 116.026 86.6741 116.039C86.6904 116.052 86.7111 116.059 86.7325 116.059Z" fill="#0A0A0A"/>
<path opacity="0.2" d="M87.847 117.59C87.8574 117.59 87.8676 117.588 87.8773 117.585L89.6149 116.996C89.6376 116.988 89.6562 116.972 89.6666 116.952C89.6769 116.931 89.6782 116.907 89.6702 116.885C89.6622 116.864 89.6454 116.846 89.6237 116.836C89.6019 116.826 89.577 116.825 89.5543 116.832L87.8167 117.421C87.7964 117.428 87.7793 117.442 87.7684 117.459C87.7575 117.477 87.7535 117.498 87.7572 117.518C87.7608 117.538 87.7718 117.557 87.7883 117.57C87.8047 117.583 87.8255 117.59 87.847 117.59Z" fill="#0A0A0A"/>
<path opacity="0.2" d="M89.4842 119.144C89.4952 119.144 89.5062 119.142 89.5165 119.138L90.3294 118.841C90.3407 118.837 90.3511 118.831 90.3599 118.823C90.3687 118.815 90.3758 118.806 90.3808 118.795C90.3858 118.785 90.3886 118.774 90.3889 118.762C90.3893 118.751 90.3873 118.739 90.383 118.729C90.3787 118.718 90.3722 118.708 90.3639 118.7C90.3556 118.691 90.3457 118.685 90.3347 118.68C90.3237 118.675 90.3118 118.673 90.2998 118.673C90.2877 118.673 90.2758 118.675 90.2646 118.679L89.4509 118.975C89.4311 118.983 89.4146 118.996 89.4042 119.014C89.3938 119.032 89.3902 119.052 89.3941 119.072C89.3979 119.092 89.4089 119.11 89.4252 119.123C89.4415 119.136 89.462 119.143 89.4833 119.143L89.4842 119.144Z" fill="#0A0A0A"/>
<path d="M94 121.549L127.54 126.962C128.574 127.071 129.62 126.946 130.596 126.596C131.572 126.246 132.451 125.68 133.165 124.944C133.879 124.207 134.407 123.319 134.71 122.351C135.012 121.382 135.079 120.358 134.907 119.359L127.755 91.4665C127.608 90.6178 127.291 89.8055 126.822 89.076C126.353 88.3465 125.741 87.7141 125.02 87.215C123.566 86.2068 121.76 85.8025 119.999 86.0909C118.239 86.3792 116.668 87.3367 115.632 88.7527C114.597 90.1686 114.181 91.927 114.478 93.6411L119.963 113.081L95.5919 109.84L94 121.549Z" fill="#626BBF"/>
<path d="M124.913 113.764C124.936 113.764 124.958 113.755 124.974 113.74C124.991 113.726 125.001 113.705 125.003 113.683C125.005 113.662 124.998 113.64 124.984 113.623C124.969 113.606 124.949 113.595 124.926 113.591L120.698 112.986C120.686 112.984 120.674 112.985 120.662 112.987C120.65 112.99 120.639 112.995 120.63 113.002C120.62 113.009 120.612 113.017 120.606 113.027C120.6 113.037 120.596 113.048 120.594 113.059C120.592 113.07 120.593 113.082 120.596 113.093C120.599 113.104 120.604 113.114 120.611 113.124C120.618 113.133 120.627 113.14 120.637 113.146C120.648 113.152 120.659 113.156 120.671 113.158L124.899 113.763C124.904 113.763 124.908 113.764 124.913 113.764Z" fill="#0C0C0C"/>
<path d="M127.211 127.063C127.223 127.063 127.235 127.062 127.246 127.058C127.258 127.054 127.268 127.049 127.277 127.041C127.286 127.034 127.293 127.024 127.299 127.014C127.304 127.004 127.307 126.993 127.308 126.981C127.308 126.97 127.307 126.959 127.303 126.948C127.299 126.937 127.293 126.927 127.285 126.918C127.277 126.91 127.268 126.903 127.257 126.898C127.246 126.893 127.235 126.89 127.223 126.889L94.4191 121.498L96.0093 110.048L120.491 113.158C120.505 113.16 120.519 113.158 120.533 113.154C120.546 113.149 120.558 113.142 120.568 113.132C120.578 113.123 120.586 113.111 120.59 113.098C120.594 113.085 120.595 113.071 120.593 113.058L117.944 102.138C117.942 102.127 117.937 102.116 117.931 102.106C117.925 102.096 117.917 102.088 117.907 102.081C117.897 102.075 117.886 102.07 117.874 102.068C117.863 102.065 117.851 102.065 117.839 102.067C117.815 102.071 117.794 102.083 117.78 102.102C117.766 102.121 117.76 102.144 117.764 102.167L120.393 112.971L95.941 109.864C95.929 109.862 95.9168 109.863 95.9051 109.866C95.8934 109.869 95.8824 109.874 95.8729 109.882C95.8634 109.889 95.8554 109.898 95.8496 109.908C95.8437 109.918 95.84 109.929 95.8388 109.941L94.229 121.564C94.2265 121.587 94.2333 121.61 94.248 121.627C94.2626 121.645 94.284 121.657 94.3075 121.66L127.199 127.062C127.203 127.062 127.207 127.063 127.211 127.063Z" fill="#0C0C0C"/>
<path d="M66 127C62.0615 130.725 56.7913 133 50.9991 133C45.2068 133 39.9403 130.723 36 127H66Z" fill="white"/>
<path d="M60.9046 55.1955C59.2693 54.2058 57.4446 53.5313 55.5346 53.2105C53.6246 52.8898 51.6667 52.9291 49.7728 53.3263C47.8788 53.7234 46.0858 54.4706 44.4962 55.5251C42.9066 56.5796 41.5515 57.9209 40.5082 59.4723L40.4942 59.4931C40.3751 59.6731 40.2028 59.8159 39.9988 59.9036C39.7948 59.9913 39.568 60.02 39.3469 59.9863C39.1257 59.9525 38.92 59.8577 38.7552 59.7137C38.5905 59.5697 38.4741 59.3829 38.4206 59.1765C37.4699 55.5723 38.1308 51.0816 40.4035 47.7018C44.7767 41.1982 56.1489 36.3972 63 40.552" fill="#F3B044"/>
<path d="M61 54.9707C62.5706 55.9598 63.9285 57.2445 64.9961 58.7517C66.0637 60.2588 66.8202 61.9588 67.2224 63.7546C67.6245 65.5504 67.6644 67.4068 67.3398 69.2178C67.0153 71.0288 66.3325 72.7589 65.3306 74.3095L65.3172 74.3301C65.2001 74.5084 65.1388 74.7167 65.1409 74.9291C65.143 75.1415 65.2085 75.3486 65.3291 75.5246C65.4496 75.7005 65.62 75.8375 65.819 75.9184C66.0179 75.9994 66.2366 76.0207 66.4477 75.9797C70.1419 75.2784 73.9961 72.8188 76.1788 69.441C80.3789 62.9411 80.1826 51.1406 73.5951 47" fill="#F3B044"/>
<path d="M97 18.2131C95.6297 24.6573 93.0286 30.8028 89.3279 36.3395C82.1022 47.2058 73.1096 55.311 65.962 62L52 53.4557C55.4562 44.5086 59.1813 33.18 66.4072 22.3142C70.0816 16.7613 74.795 11.9083 80.3096 8" fill="#292A2E"/>
<path d="M80 34C84.4183 34 88 30.4183 88 26C88 21.5817 84.4183 18 80 18C75.5817 18 72 21.5817 72 26C72 30.4183 75.5817 34 80 34Z" fill="#F3B044"/>
<path d="M80.5 33C84.0899 33 87 30.0899 87 26.5C87 22.9101 84.0899 20 80.5 20C76.9102 20 74 22.9101 74 26.5C74 30.0899 76.9102 33 80.5 33Z" fill="white"/>
<path d="M66.188 61.6294L52.1016 53.0436L50.9295 54.7991L65.0159 63.3848L66.188 61.6294Z" fill="#292A2E"/>
<path d="M96.8889 18L80 7.90451C89.1259 1.59556 97.263 0 97.263 0C97.263 0 99.1479 7.58667 96.8889 18Z" fill="#F3B044"/>
<path d="M64.3071 53.9596C59.7076 60.2872 52.8178 68.4039 52.0691 67.9844C51.3204 67.5648 56.8022 58.6609 61.4015 52.3326C66.0007 46.0042 67.9755 44.6503 68.725 45.0698C69.4744 45.4894 68.9063 47.6319 64.3071 53.9596Z" fill="#F3B044"/>
<path d="M69.8895 124.171L61.5147 99.4918C61.3675 99.0582 61.081 98.6803 60.6961 98.4123C60.3112 98.1443 59.8477 98 59.372 98H25.2534C24.8977 98 24.5471 98.0807 24.2302 98.2355C23.9133 98.3903 23.6392 98.6149 23.4301 98.8908C23.2211 99.1666 23.0832 99.486 23.0277 99.8228C22.9721 100.16 23.0005 100.504 23.1105 100.828L31.4851 125.508C31.6323 125.942 31.9189 126.32 32.3038 126.588C32.6887 126.856 33.1523 127 33.628 127H67.7466C68.1023 127 68.4529 126.919 68.7698 126.764C69.0867 126.61 69.3608 126.385 69.5699 126.109C69.7789 125.833 69.9168 125.514 69.9723 125.177C70.0279 124.84 69.9995 124.496 69.8895 124.171Z" fill="#292A2E"/>
<path d="M85.952 125H63.048C62.4692 125 62 125.448 62 126C62 126.552 62.4692 127 63.048 127H85.952C86.5308 127 87 126.552 87 126C87 125.448 86.5308 125 85.952 125Z" fill="#292A2E"/>
<path d="M46.5 117C48.433 117 50 115.657 50 114C50 112.343 48.433 111 46.5 111C44.567 111 43 112.343 43 114C43 115.657 44.567 117 46.5 117Z" fill="white"/>
</svg>
