<svg width="105" height="119" viewBox="0 0 105 119" fill="none" xmlns="http://www.w3.org/2000/svg">
<path d="M37.7146 82.2717L101.447 82.2717C102.808 82.2717 103.911 81.1563 103.911 79.7804L103.911 3.8961C103.911 2.52018 102.808 1.40478 101.447 1.40478L37.7146 1.40478C36.354 1.40478 35.2511 2.52018 35.2511 3.8961L35.2511 79.7804C35.2511 81.1563 36.354 82.2717 37.7146 82.2717Z" fill="white"/>
<path d="M35.0996 79.7807V3.89609C35.1004 3.19498 35.3762 2.52282 35.8664 2.02707C36.3567 1.53133 37.0214 1.25248 37.7147 1.25171H101.447C102.14 1.25248 102.805 1.53133 103.295 2.02707C103.786 2.52282 104.061 3.19498 104.062 3.89609V79.7807C104.061 80.4818 103.786 81.154 103.295 81.6497C102.805 82.1455 102.14 82.4244 101.447 82.4252H37.7147C37.0214 82.4244 36.3567 82.1455 35.8664 81.6497C35.3762 81.154 35.1004 80.4818 35.0996 79.7807ZM37.7147 1.5583C37.1017 1.55899 36.5141 1.80552 36.0806 2.24382C35.6472 2.68212 35.4034 3.27638 35.4026 3.89625V79.7807C35.4034 80.4006 35.6472 80.9948 36.0806 81.4332C36.514 81.8715 37.1017 82.118 37.7147 82.1188H101.447C102.06 82.118 102.648 81.8715 103.081 81.4332C103.515 80.9948 103.758 80.4006 103.759 79.7807V3.89609C103.758 3.27623 103.515 2.68196 103.081 2.24367C102.648 1.80537 102.06 1.55883 101.447 1.55814L37.7147 1.5583Z" fill="#292A2E"/>
<path d="M50.7556 117.938C50.7338 117.938 50.7123 117.934 50.6926 117.924C50.6728 117.915 50.6552 117.902 50.641 117.885C50.6268 117.869 50.6162 117.849 50.6101 117.828C50.604 117.807 50.6025 117.785 50.6056 117.763L55.6723 82.403C55.6749 82.3828 55.6814 82.3634 55.6914 82.3458C55.7015 82.3281 55.7149 82.3127 55.7309 82.3004C55.747 82.2881 55.7652 82.2791 55.7847 82.274C55.8042 82.269 55.8245 82.2678 55.8444 82.2708C55.8643 82.2737 55.8834 82.2806 55.9007 82.291C55.9179 82.3015 55.9329 82.3154 55.9448 82.3318C55.9567 82.3482 55.9653 82.3668 55.97 82.3866C55.9747 82.4064 55.9754 82.4269 55.9722 82.447L50.9046 117.807C50.8994 117.843 50.8815 117.877 50.8542 117.901C50.8268 117.925 50.7918 117.938 50.7556 117.938Z" fill="#292A2E"/>
<path d="M88.4063 117.938C88.37 117.938 88.3348 117.925 88.3073 117.901C88.2799 117.877 88.2619 117.844 88.2566 117.807L83.1897 82.4467C83.1847 82.4068 83.1953 82.3666 83.2194 82.3346C83.2434 82.3026 83.2789 82.2815 83.3182 82.2757C83.3576 82.2699 83.3976 82.28 83.4296 82.3038C83.4616 82.3275 83.4832 82.3631 83.4895 82.4027L88.5571 117.763C88.5602 117.785 88.5586 117.807 88.5525 117.828C88.5464 117.849 88.5359 117.869 88.5216 117.886C88.5074 117.902 88.4898 117.916 88.4701 117.925C88.4503 117.934 88.4288 117.939 88.4071 117.939L88.4063 117.938Z" fill="#292A2E"/>
<g opacity="0.1">
<path d="M42.1833 40.3828L96.979 40.3828C97.9423 40.3828 98.7231 39.5931 98.7231 38.6189V9.0125C98.7231 8.03835 97.9423 7.24865 96.979 7.24865L42.1833 7.24865C41.22 7.24865 40.4391 8.03835 40.4391 9.0125L40.4391 38.6189C40.4391 39.5931 41.22 40.3828 42.1833 40.3828Z" fill="#626BBF"/>
</g>
<g opacity="0.1">
<path d="M40.3774 74.6188V46.0988C40.378 45.6094 40.5705 45.1403 40.9127 44.7942C41.2549 44.4482 41.7189 44.2535 42.2028 44.253H96.8078C97.2916 44.2536 97.7555 44.4483 98.0977 44.7943C98.4398 45.1404 98.6323 45.6095 98.6328 46.0988V74.6188C98.6323 75.1082 98.4398 75.5774 98.0976 75.9235C97.7554 76.2696 97.2914 76.4642 96.8075 76.4647H42.2028C41.7189 76.4642 41.2549 76.2696 40.9127 75.9235C40.5704 75.5774 40.378 75.1082 40.3774 74.6188Z" fill="#626BBF"/>
</g>
<path d="M91.6512 72.2552H92.735C92.8981 72.2552 93.0303 72.1215 93.0303 71.9566V51.0208C93.0303 50.8559 92.8981 50.7222 92.735 50.7222H91.6512C91.4881 50.7222 91.3559 50.8559 91.3559 51.0208V71.9566C91.3559 72.1215 91.4881 72.2552 91.6512 72.2552Z" fill="white"/>
<path opacity="0.3" d="M93.3256 72.2552H94.4093C94.5724 72.2552 94.7046 72.1215 94.7046 71.9566V57.7838C94.7046 57.6189 94.5724 57.4852 94.4093 57.4852H93.3256C93.1625 57.4852 93.0303 57.6189 93.0303 57.7838V71.9566C93.0303 72.1215 93.1625 72.2552 93.3256 72.2552Z" fill="#626BBF"/>
<path d="M78.2518 72.2552H79.3356C79.4987 72.2552 79.6309 72.1215 79.6309 71.9566V69.8292C79.6309 69.6642 79.4987 69.5305 79.3356 69.5305H78.2518C78.0887 69.5305 77.9565 69.6642 77.9565 69.8292V71.9566C77.9565 72.1215 78.0887 72.2552 78.2518 72.2552Z" fill="white"/>
<path opacity="0.3" d="M79.9261 72.2552H81.0099C81.173 72.2552 81.3052 72.1215 81.3052 71.9566V56.5679C81.3052 56.4029 81.173 56.2692 81.0099 56.2692H79.9261C79.7631 56.2692 79.6308 56.4029 79.6308 56.5679V71.9566C79.6308 72.1215 79.7631 72.2552 79.9261 72.2552Z" fill="#626BBF"/>
<path d="M84.9515 72.2552H86.0353C86.1984 72.2552 86.3306 72.1216 86.3306 71.9566V59.6649C86.3306 59.5 86.1984 59.3663 86.0353 59.3663H84.9515C84.7884 59.3663 84.6562 59.5 84.6562 59.6649V71.9566C84.6562 72.1216 84.7884 72.2552 84.9515 72.2552Z" fill="white"/>
<path opacity="0.3" d="M86.6258 72.2552H87.7096C87.8727 72.2552 88.0049 72.1216 88.0049 71.9566V64.1183C88.0049 63.9534 87.8727 63.8197 87.7096 63.8197H86.6258C86.4628 63.8197 86.3306 63.9534 86.3306 64.1183V71.9566C86.3306 72.1216 86.4628 72.2552 86.6258 72.2552Z" fill="#626BBF"/>
<path d="M58.1522 72.2552H59.236C59.399 72.2552 59.5312 72.1216 59.5312 71.9566V55.1853C59.5312 55.0203 59.399 54.8866 59.236 54.8866H58.1522C57.9891 54.8866 57.8569 55.0203 57.8569 55.1853V71.9566C57.8569 72.1216 57.9891 72.2552 58.1522 72.2552Z" fill="white"/>
<path opacity="0.3" d="M59.8265 72.2554H60.9103C61.0734 72.2554 61.2056 72.1217 61.2056 71.9568V61.58C61.2056 61.415 61.0734 61.2813 60.9103 61.2813H59.8265C59.6634 61.2813 59.5312 61.415 59.5312 61.58V71.9568C59.5312 72.1217 59.6634 72.2554 59.8265 72.2554Z" fill="#626BBF"/>
<path d="M71.5521 72.2552H72.6359C72.7989 72.2552 72.9312 72.1216 72.9312 71.9566V57.8946C72.9312 57.7297 72.7989 57.596 72.6359 57.596H71.5521C71.389 57.596 71.2568 57.7297 71.2568 57.8946V71.9566C71.2568 72.1216 71.389 72.2552 71.5521 72.2552Z" fill="white"/>
<path opacity="0.3" d="M73.2264 72.2552H74.3102C74.4733 72.2552 74.6055 72.1216 74.6055 71.9566V59.5543C74.6055 59.3893 74.4733 59.2556 74.3102 59.2556H73.2264C73.0633 59.2556 72.9311 59.3893 72.9311 59.5543V71.9566C72.9311 72.1216 73.0633 72.2552 73.2264 72.2552Z" fill="#626BBF"/>
<path d="M64.8519 72.2552H65.9357C66.0987 72.2552 66.231 72.1215 66.231 71.9566V51.0208C66.231 50.8559 66.0987 50.7222 65.9357 50.7222H64.8519C64.6888 50.7222 64.5566 50.8559 64.5566 51.0208V71.9566C64.5566 72.1215 64.6888 72.2552 64.8519 72.2552Z" fill="white"/>
<path opacity="0.3" d="M66.5262 72.2552H67.61C67.7731 72.2552 67.9053 72.1215 67.9053 71.9566V52.0581C67.9053 51.8931 67.7731 51.7594 67.61 51.7594H66.5262C66.3631 51.7594 66.2309 51.8931 66.2309 52.0581V71.9566C66.2309 72.1215 66.3631 72.2552 66.5262 72.2552Z" fill="#626BBF"/>
<path d="M51.4525 72.2552H52.5363C52.6993 72.2552 52.8315 72.1215 52.8315 71.9566V51.0208C52.8315 50.8559 52.6993 50.7222 52.5363 50.7222H51.4525C51.2894 50.7222 51.1572 50.8559 51.1572 51.0208V71.9566C51.1572 72.1215 51.2894 72.2552 51.4525 72.2552Z" fill="white"/>
<path opacity="0.3" d="M53.1268 72.2552H54.2106C54.3737 72.2552 54.5059 72.1215 54.5059 71.9566V57.7838C54.5059 57.6189 54.3737 57.4852 54.2106 57.4852H53.1268C52.9637 57.4852 52.8315 57.6189 52.8315 57.7838V71.9566C52.8315 72.1215 52.9637 72.2552 53.1268 72.2552Z" fill="#626BBF"/>
<path d="M44.7528 72.2552H45.8365C45.9996 72.2552 46.1318 72.1216 46.1318 71.9566V59.6649C46.1318 59.5 45.9996 59.3663 45.8365 59.3663H44.7528C44.5897 59.3663 44.4575 59.5 44.4575 59.6649V71.9566C44.4575 72.1216 44.5897 72.2552 44.7528 72.2552Z" fill="white"/>
<path opacity="0.3" d="M46.4271 72.2552H47.5109C47.6739 72.2552 47.8062 72.1216 47.8062 71.9566V64.1183C47.8062 63.9534 47.6739 63.8197 47.5109 63.8197H46.4271C46.264 63.8197 46.1318 63.9534 46.1318 64.1183V71.9566C46.1318 72.1216 46.264 72.2552 46.4271 72.2552Z" fill="#626BBF"/>
<path opacity="0.2" d="M94.7196 17.8821V36.2113C94.7196 36.2892 94.689 36.364 94.6345 36.4191C94.58 36.4742 94.5061 36.5052 94.429 36.5053H44.733C44.6559 36.5052 44.582 36.4742 44.5275 36.4191C44.473 36.364 44.4424 36.2892 44.4424 36.2113V26.4807C44.4424 26.4291 44.4558 26.3784 44.4813 26.3337C44.5068 26.289 44.5435 26.2519 44.5877 26.2261L53.3864 21.0887C53.4313 21.0625 53.4822 21.0489 53.534 21.0493C53.5858 21.0497 53.6365 21.0641 53.681 21.091L57.6419 23.4848C57.6914 23.5148 57.7486 23.5292 57.8063 23.5261C57.8639 23.5231 57.9194 23.5027 57.9655 23.4677L62.1246 20.3105C62.167 20.2782 62.2173 20.2583 62.2701 20.2529C62.3228 20.2475 62.3761 20.2568 62.424 20.2798L67.5565 22.7485C67.6114 22.7749 67.673 22.7833 67.7328 22.7724C67.7926 22.7616 67.8475 22.7321 67.8898 22.6881L73.5883 16.7713C73.6375 16.7201 73.7034 16.6887 73.7738 16.6831C73.8441 16.6775 73.9141 16.6979 73.9707 16.7407L77.6708 19.5426C77.7244 19.5832 77.7902 19.6039 77.8572 19.6011C77.9241 19.5983 77.988 19.5722 78.0381 19.5272L80.4591 17.3515C80.5079 17.3076 80.5699 17.2816 80.6352 17.2777C80.7004 17.2739 80.765 17.2924 80.8186 17.3302L84.2545 19.7557C84.3039 19.7905 84.3628 19.8089 84.423 19.8085C84.4832 19.8081 84.5418 19.7888 84.5907 19.7532L90.5317 15.4293C90.5774 15.396 90.6317 15.3768 90.688 15.3741C90.7442 15.3714 90.8001 15.3852 90.8487 15.4139L94.5758 17.6278C94.6197 17.6538 94.6561 17.6909 94.6813 17.7355C94.7065 17.7802 94.7197 17.8307 94.7196 17.8821Z" fill="#626BBF"/>
<path opacity="0.61" d="M44.6093 26.228C44.6348 26.2281 44.6598 26.2213 44.6819 26.2083L53.5078 21.055L57.7099 23.5945C57.7347 23.6095 57.7633 23.6166 57.7921 23.6151C57.8209 23.6136 57.8486 23.6034 57.8717 23.586L62.257 20.2568L67.6569 22.854C67.6844 22.8671 67.7152 22.8712 67.7451 22.8657C67.775 22.8603 67.8024 22.8454 67.8236 22.8234L73.7558 16.6631L77.7479 19.6861C77.7747 19.7064 77.8076 19.7168 77.8411 19.7154C77.8745 19.714 77.9065 19.7009 77.9315 19.6784L80.6157 17.2656L84.3149 19.8776C84.3396 19.895 84.3691 19.9043 84.3992 19.904C84.4292 19.9038 84.4585 19.8942 84.483 19.8764L90.6683 15.3755L94.4788 17.6385C94.4953 17.6483 94.5135 17.6547 94.5324 17.6574C94.5513 17.6601 94.5705 17.6589 94.589 17.6541C94.6075 17.6493 94.6248 17.6408 94.6401 17.6292C94.6553 17.6175 94.6681 17.603 94.6778 17.5863C94.6875 17.5697 94.6938 17.5513 94.6965 17.5322C94.6991 17.5131 94.698 17.4936 94.6932 17.4749C94.6884 17.4562 94.6801 17.4387 94.6686 17.4233C94.6571 17.4078 94.6427 17.3949 94.6262 17.3851L90.7339 15.0733C90.7096 15.0589 90.6817 15.052 90.6535 15.0533C90.6254 15.0546 90.5982 15.0642 90.5753 15.0808L84.3968 19.5769L80.688 16.9588C80.6612 16.9399 80.6289 16.9306 80.5963 16.9325C80.5637 16.9344 80.5327 16.9474 80.5083 16.9694L77.8265 19.3795L73.8267 16.351C73.7984 16.3296 73.7634 16.3194 73.7282 16.3222C73.693 16.325 73.6601 16.3407 73.6355 16.3663L67.6869 22.5438L62.3015 19.9535C62.2776 19.9419 62.2509 19.9373 62.2246 19.94C62.1982 19.9427 62.173 19.9527 62.1518 19.9688L57.7741 23.2921L53.5828 20.7588C53.5605 20.7454 53.5352 20.7382 53.5093 20.738C53.4834 20.7378 53.4579 20.7446 53.4355 20.7577L44.5355 25.9541C44.5078 25.9703 44.4862 25.9953 44.4739 26.0252C44.4617 26.0551 44.4596 26.0883 44.4679 26.1196C44.4762 26.1508 44.4944 26.1785 44.5199 26.1981C44.5453 26.2178 44.5764 26.2285 44.6084 26.2285L44.6093 26.228Z" fill="#626BBF"/>
<path d="M12.297 111.125C12.297 111.125 12.981 114.71 16.3011 114.911C19.6211 115.111 18.9011 117.785 18.9011 117.785H6.21387V111.375L12.297 111.125Z" fill="#626BBF"/>
<path d="M5.35303 45.7117C5.35303 45.7117 6.30178 44.6337 6.29345 47.0789C6.26208 56.1998 5.65347 113.413 5.65347 113.413L13.9904 113.343L19.0407 45.3411L5.35303 45.7117Z" fill="#262626"/>
<path d="M26.5328 111.125C26.5328 111.125 27.2169 114.71 30.5369 114.911C33.8569 115.111 33.137 117.785 33.137 117.785H20.4497V111.375L26.5328 111.125Z" fill="#626BBF"/>
<path d="M28.1452 46.4199C28.1452 46.4199 29.1867 77.5929 29.0785 79.1165L28.0992 113.177L19.9001 113.33L18.5779 77.8842C18.5779 77.8842 17.7112 68.1064 15.3751 59.0271C14.1799 54.3673 13.4606 49.5958 13.2285 44.7875L28.1452 46.4199Z" fill="#262626"/>
<path d="M17.3286 68.5215L18.0122 57.9481C18.0122 57.9481 18.7145 62.3438 18.7145 66.1325C18.7145 67.9845 18.3374 75.3167 18.3374 75.3167L17.3286 68.5215Z" fill="#0A0A0A"/>
<path d="M5.26413 45.7106L5.23535 45.7122C5.23535 45.7122 5.25613 45.1805 5.26413 45.7106Z" fill="#333333"/>
<path d="M5.29831 45.7106L5.26953 45.7121C5.26953 45.7121 5.29031 45.1805 5.29831 45.7106Z" fill="#333333"/>
<path d="M50.9806 20.4088C50.9304 20.3083 50.8505 20.2259 50.7521 20.1732C50.6536 20.1205 50.5414 20.1001 50.4309 20.1147C50.4319 20.1079 50.4312 20.1011 50.429 20.0946C50.4268 20.0882 50.423 20.0825 50.4181 20.0778C50.4131 20.0732 50.4071 20.0699 50.4006 20.0681C50.3941 20.0664 50.3873 20.0663 50.3807 20.0678L50.7535 19.7977C50.8651 19.7205 50.9453 19.605 50.9792 19.4726C51.0131 19.3402 50.9985 19.1999 50.938 19.0775C50.8745 18.9586 50.7695 18.8678 50.6436 18.8228C50.5176 18.7777 50.3795 18.7817 50.2562 18.8338C50.2571 18.8286 50.2535 18.8234 50.2527 18.8184L50.4059 18.7074C50.5107 18.6342 50.5872 18.5266 50.6226 18.4029C50.658 18.2792 50.6501 18.1469 50.6001 18.0285C50.5673 17.9548 50.5187 17.8895 50.4579 17.8371C50.397 17.7848 50.3255 17.7468 50.2483 17.7258C50.1712 17.7048 50.0904 17.7014 50.0118 17.7158C49.9332 17.7302 49.8588 17.762 49.7938 17.8091L49.4403 18.0654C49.4393 18.0632 49.4403 18.0608 49.439 18.0588C49.4376 18.0568 49.4337 18.056 49.4317 18.0539C49.5129 17.9616 49.5606 17.8441 49.5671 17.7207C49.5735 17.5974 49.5383 17.4754 49.4671 17.375C49.3005 17.1035 48.9152 17.1589 48.6866 17.3246L46.606 18.778L46.9778 18.1448C47.0528 18.023 47.0792 17.8769 47.0517 17.7362C47.0243 17.5954 46.9449 17.4705 46.8298 17.3866C46.7689 17.3454 46.7004 17.3172 46.6284 17.3036C46.5563 17.2901 46.4823 17.2915 46.4109 17.3079C46.3394 17.3242 46.272 17.3551 46.2127 17.3987C46.1535 17.4423 46.1036 17.4976 46.0662 17.5613L44.036 21.0183C43.7978 21.4239 43.7253 21.9074 43.834 22.3661C43.9427 22.8248 44.224 23.2226 44.6181 23.4749C45.0751 23.7676 45.6082 23.9156 46.1489 23.8999C46.6897 23.8842 47.2134 23.7055 47.6531 23.3868L50.7951 21.1094C50.8996 21.0308 50.9747 20.9189 51.0084 20.7917C51.042 20.6646 51.0322 20.5297 50.9806 20.4088Z" fill="#FAA896"/>
<g opacity="0.25">
<path d="M47.3816 19.5013C47.3893 19.5119 47.4008 19.5191 47.4135 19.5213C47.4263 19.5234 47.4395 19.5205 47.4501 19.513L49.427 18.1283C49.4324 18.1246 49.437 18.1198 49.4405 18.1142C49.4441 18.1087 49.4465 18.1025 49.4477 18.096C49.4488 18.0895 49.4487 18.0828 49.4473 18.0763C49.4459 18.0699 49.4433 18.0638 49.4396 18.0583C49.4359 18.0529 49.4311 18.0483 49.4256 18.0447C49.4202 18.0411 49.414 18.0386 49.4076 18.0375C49.4012 18.0363 49.3946 18.0364 49.3882 18.0378C49.3818 18.0392 49.3757 18.0418 49.3704 18.0456L47.3935 19.4302C47.3826 19.4378 47.3752 19.4495 47.3729 19.4626C47.3705 19.4757 47.3734 19.4893 47.3809 19.5003L47.3816 19.5013Z" fill="#0C0C0C"/>
</g>
<g opacity="0.25">
<path d="M47.9612 20.3998C47.9688 20.4105 47.9803 20.4177 47.9931 20.4199C48.0059 20.4221 48.0191 20.4191 48.0297 20.4116L50.236 18.8662C50.2468 18.8586 50.2542 18.847 50.2565 18.8338C50.2588 18.8207 50.2559 18.8072 50.2484 18.7962C50.2406 18.7856 50.2291 18.7784 50.2163 18.776C50.2034 18.7737 50.1902 18.7764 50.1792 18.7835L47.9731 20.3289C47.9622 20.3365 47.9548 20.3481 47.9525 20.3612C47.9501 20.3744 47.953 20.3879 47.9605 20.3989L47.9612 20.3998Z" fill="#0C0C0C"/>
</g>
<g opacity="0.25">
<path d="M48.5838 21.3767C48.5915 21.3873 48.603 21.3945 48.6158 21.3966C48.6286 21.3988 48.6417 21.3958 48.6524 21.3884L50.4122 20.1557C50.4231 20.1481 50.4305 20.1365 50.4328 20.1233C50.4352 20.1102 50.4323 20.0967 50.4248 20.0857C50.4173 20.0747 50.4058 20.0672 50.3928 20.0648C50.3798 20.0625 50.3664 20.0654 50.3555 20.073L48.5956 21.3056C48.5848 21.3132 48.5774 21.3249 48.575 21.338C48.5727 21.3511 48.5755 21.3647 48.583 21.3756L48.5838 21.3767Z" fill="#0C0C0C"/>
</g>
<path d="M42.8383 20.2305L36.875 30.501L29.5988 20.8495L23.5562 26.3587L33.8756 39.8742L33.9432 39.9705C34.3563 40.5425 34.9066 40.9988 35.5423 41.2964C36.1779 41.5939 36.8781 41.723 37.5767 41.6713C38.2753 41.6196 38.9493 41.3888 39.5354 41.0009C40.1215 40.6129 40.6002 40.0804 40.9266 39.4537L49.4062 23.9243L42.8383 20.2305Z" fill="#626BBF"/>
<path d="M36.2902 31.7361C36.2782 31.7361 36.2664 31.7332 36.2557 31.7277C36.2468 31.7231 36.2389 31.7168 36.2325 31.7091C36.226 31.7015 36.2211 31.6926 36.218 31.683C36.215 31.6735 36.2138 31.6634 36.2146 31.6533C36.2154 31.6433 36.2181 31.6335 36.2227 31.6246L36.8073 30.4662C36.8119 30.4573 36.8181 30.4493 36.8257 30.4428C36.8332 30.4362 36.842 30.4313 36.8515 30.4282C36.8609 30.4251 36.8709 30.4239 36.8808 30.4247C36.8908 30.4255 36.9004 30.4282 36.9093 30.4328C36.9182 30.4374 36.926 30.4437 36.9325 30.4514C36.939 30.459 36.9439 30.4679 36.9469 30.4775C36.95 30.487 36.9512 30.4971 36.9504 30.5072C36.9496 30.5172 36.9469 30.527 36.9423 30.5359L36.3577 31.6943C36.3513 31.7068 36.3417 31.7174 36.3298 31.7248C36.3179 31.7322 36.3042 31.7361 36.2902 31.7361Z" fill="#0C0C0C"/>
<path d="M29.1791 30.4425L28.9971 33.6865L29.1483 33.6951L29.3304 30.4512L29.1791 30.4425Z" fill="#0C0C0C"/>
<path d="M9.9641 6.96584C9.9641 6.96584 9.68472 10.5766 8.86581 11.8782C6.50832 15.6254 5.7891 19.8634 8.08144 22.1088C10.3738 24.3542 25.1566 24.558 26.3341 19.469C27.326 15.1846 25.3081 14.699 24.8563 11.1493C24.6519 9.54342 24.0777 6.17416 24.0777 6.17416" fill="#0A0A0A"/>
<path d="M22.5707 18.6554C22.5452 18.6521 22.2621 23.4039 16.8033 22.9896C13.0244 22.7033 11.677 18.6487 11.5903 18.6487C11.9977 18.5612 12.6839 18.4342 12.8648 18.3361C13.4598 18.0128 14.1961 17.6764 14.388 16.5078C14.4986 15.8336 14.311 12.3884 14.3687 11.707L20.1694 13.0162C20.0883 14.4556 19.5211 17.7922 21.5094 18.3827C21.8403 18.4803 22.1966 18.5702 22.5707 18.6554Z" fill="#FAA896"/>
<path opacity="0.52" d="M20.2509 17.019C20.1601 16.7229 20.1016 16.4176 20.0764 16.1086C20.0126 15.4035 20.0253 14.6934 20.1143 13.991C18.9353 13.8301 17.8245 13.338 16.9083 12.5705C16.8006 12.9729 16.2082 14.7309 16.3723 15.113C16.6823 15.8356 18.1392 17.019 20.2509 17.019Z" fill="#0C0C0C"/>
<path d="M19.4821 15.5235C17.1928 15.7205 14.2444 14.7608 13.6669 11.6739L13.1455 8.88856C12.5678 5.80169 13.7028 2.99244 16.5769 2.44239C19.4509 1.89234 22.0675 3.9836 22.6452 7.07048L22.8759 8.30358C23.0976 9.4881 23.567 15.172 19.4821 15.5235Z" fill="#FAA896"/>
<path d="M22.0566 8.43812C22.2556 8.43812 22.4169 8.27499 22.4169 8.07376C22.4169 7.87254 22.2556 7.70941 22.0566 7.70941C21.8576 7.70941 21.6963 7.87254 21.6963 8.07376C21.6963 8.27499 21.8576 8.43812 22.0566 8.43812Z" fill="#0C0C0C"/>
<path d="M18.3657 8.93668C18.5646 8.93668 18.7259 8.77355 18.7259 8.57233C18.7259 8.3711 18.5646 8.20798 18.3657 8.20798C18.1667 8.20798 18.0054 8.3711 18.0054 8.57233C18.0054 8.77355 18.1667 8.93668 18.3657 8.93668Z" fill="#0C0C0C"/>
<path d="M20.391 11.2434H20.3967C20.5131 11.2202 20.6282 11.1905 20.7413 11.1545C20.9103 11.0995 21.1318 11.0086 21.1028 10.8542C21.07 10.6783 20.2385 8.87187 20.1436 8.66641C20.1354 8.64846 20.1204 8.63458 20.102 8.62782C20.0836 8.62105 20.0633 8.62195 20.0455 8.63032C20.0278 8.63869 20.0141 8.65385 20.0074 8.67245C20.0007 8.69106 20.0016 8.71159 20.0099 8.72953C20.3645 9.49884 20.9357 10.7636 20.9577 10.8821C20.9388 10.9369 20.6582 11.0413 20.3692 11.0966C20.3503 11.0999 20.3333 11.1107 20.3221 11.1265C20.3108 11.1423 20.3061 11.1619 20.309 11.1811C20.3118 11.2004 20.322 11.2178 20.3373 11.2295C20.3527 11.2413 20.3719 11.2465 20.391 11.2441V11.2434Z" fill="#0C0C0C"/>
<path d="M19.9659 12.5762C20.4347 12.5146 20.8826 12.3425 21.2736 12.0738C21.29 12.063 21.3015 12.0461 21.3056 12.0267C21.3096 12.0074 21.3059 11.9872 21.2953 11.9706C21.2846 11.954 21.2678 11.9423 21.2487 11.9382C21.2295 11.9341 21.2096 11.9379 21.1931 11.9486C20.347 12.5062 19.5062 12.5963 18.7619 12.2091C18.7468 12.2009 18.7313 12.1935 18.7155 12.1869C18.6971 12.1804 18.677 12.1814 18.6594 12.1898C18.6418 12.1983 18.6282 12.2134 18.6216 12.2319C18.615 12.2504 18.6159 12.2708 18.624 12.2887C18.6322 12.3066 18.6471 12.3204 18.6654 12.3272C18.6713 12.3297 18.6805 12.3349 18.6944 12.3426C19.0858 12.5467 19.5285 12.6281 19.9659 12.5762Z" fill="#0C0C0C"/>
<path d="M10.8465 9.85935L13.4222 9.38162C15.3733 8.5832 15.9634 5.16721 15.9634 5.16721C15.9634 5.16721 18.3342 7.50332 24.0778 6.17493C24.0778 6.17493 22.9263 -1.92523 14.4409 0.429262C11.7048 1.18876 9.74108 3.97702 9.98653 7.70343C10.1571 10.3153 10.8465 9.85935 10.8465 9.85935Z" fill="#0A0A0A"/>
<path d="M14.021 12.5802C13.1477 12.7474 12.2627 11.9379 12.0968 11.0546C11.9309 10.1713 12.5485 9.54878 13.4219 9.38162L13.9825 9.88724L14.7719 12.4365L14.021 12.5802Z" fill="#FAA896"/>
<path d="M20.6703 7.18939C20.9251 7.02309 21.2194 6.92911 21.5224 6.91727C21.6716 6.91062 21.8209 6.92658 21.9654 6.96461C22.1085 7.00181 22.2464 7.05704 22.3758 7.12902C22.3941 7.1381 22.408 7.15411 22.4147 7.17356C22.4213 7.19301 22.4201 7.21432 22.4112 7.23285C22.4024 7.25138 22.3867 7.26563 22.3675 7.2725C22.3483 7.27937 22.3273 7.2783 22.3089 7.26952L22.3034 7.26691C22.1838 7.20748 22.0572 7.16347 21.9268 7.13591C21.7977 7.10799 21.6653 7.09998 21.5339 7.11216C21.2733 7.13421 21.0231 7.22561 20.8088 7.37708L20.8018 7.38213C20.7895 7.39119 20.7755 7.3977 20.7607 7.4013C20.7459 7.4049 20.7306 7.40551 20.7155 7.40311C20.7005 7.4007 20.6861 7.39533 20.6731 7.38729C20.6601 7.37924 20.6488 7.36869 20.6398 7.35624C20.6309 7.34378 20.6244 7.32967 20.6209 7.3147C20.6173 7.29973 20.6167 7.28419 20.6191 7.26898C20.6215 7.25377 20.6268 7.23919 20.6347 7.22605C20.6427 7.21292 20.6531 7.2015 20.6654 7.19245L20.6703 7.18939Z" fill="#0C0C0C"/>
<path d="M18.3725 7.73637C18.1185 7.67362 17.8526 7.6798 17.6018 7.7543C17.4749 7.79103 17.3543 7.84692 17.2439 7.92008C17.132 7.99363 17.0298 8.08114 16.9395 8.18055L16.9354 8.18469C16.9213 8.19901 16.9022 8.20723 16.8822 8.20759C16.8622 8.20796 16.8429 8.20045 16.8282 8.18665C16.8136 8.17284 16.8048 8.15383 16.8038 8.13363C16.8028 8.11342 16.8096 8.0936 16.8227 8.07835C16.9177 7.9639 17.0266 7.86203 17.1468 7.77513C17.2678 7.68669 17.4013 7.61722 17.5428 7.56906C17.8297 7.46935 18.1377 7.44945 18.4348 7.51145C18.4649 7.51799 18.4912 7.53637 18.508 7.56255C18.5247 7.58872 18.5305 7.62055 18.524 7.65103C18.5175 7.6815 18.4994 7.70813 18.4735 7.72506C18.4476 7.74198 18.4161 7.74782 18.386 7.74127L18.3813 7.7402L18.3725 7.73637Z" fill="#0C0C0C"/>
<path d="M20.0655 13.277C20.1504 13.2672 20.2343 13.2502 20.3164 13.226C20.3258 13.2234 20.3346 13.219 20.3424 13.2129C20.3501 13.2068 20.3565 13.1992 20.3613 13.1906C20.3661 13.182 20.3692 13.1725 20.3703 13.1627C20.3715 13.1528 20.3707 13.1429 20.368 13.1334C20.3653 13.1239 20.3607 13.115 20.3546 13.1073C20.3485 13.0996 20.3409 13.0932 20.3323 13.0884C20.3237 13.0837 20.3143 13.0808 20.3045 13.0798C20.2948 13.0788 20.285 13.0797 20.2756 13.0826C19.7815 13.2263 19.5006 13.0359 19.489 13.0276C19.4729 13.0162 19.453 13.0118 19.4337 13.0152C19.4144 13.0187 19.3972 13.0297 19.3859 13.046C19.3747 13.0622 19.3703 13.0823 19.3737 13.1019C19.3771 13.1214 19.388 13.1388 19.4041 13.1502C19.6035 13.2684 19.8371 13.3132 20.0655 13.277Z" fill="#0C0C0C"/>
<path d="M13.4284 9.34868L13.4028 9.27652C16.6671 8.09138 15.8688 4.8519 15.8605 4.81926L15.9336 4.79996C15.9423 4.83305 16.7588 8.13949 13.4284 9.34868Z" fill="#0C0C0C"/>
<path opacity="0.1" d="M18.0748 11.4708C18.4517 11.4298 18.7331 11.1699 18.7033 10.8903C18.6736 10.6107 18.3439 10.4173 17.9671 10.4583C17.5902 10.4994 17.3088 10.7592 17.3385 11.0388C17.3683 11.3184 17.6979 11.5118 18.0748 11.4708Z" fill="#0C0C0C"/>
<path opacity="0.1" d="M22.0641 10.4013C22.0944 10.6805 22.4241 10.8735 22.8011 10.8331C22.8662 10.8259 22.9304 10.812 22.9927 10.7915C23.0139 10.4594 23.0186 10.1396 23.0124 9.84342C22.9082 9.81586 22.7999 9.80817 22.6929 9.82075C22.3159 9.8612 22.0347 10.1211 22.0641 10.4013Z" fill="#0C0C0C"/>
<path d="M29.3531 29.1168C29.1812 31.1595 28.3448 43.9037 28.1795 46.4198H6.30581C6.17703 44.1505 4.69011 34.2274 4.2021 29.7897C3.73621 25.5551 2.82215 23.435 3.49213 22.1831C4.58694 20.137 7.57864 18.9548 9.61857 18.6755C10.8643 18.505 12.7377 18.3827 12.7377 18.3827C12.7377 18.3827 12.8963 21.6278 16.6789 21.8085C21.828 22.0536 21.4842 18.3827 21.5096 18.3827C22.3439 18.3827 27.1091 18.9167 28.275 19.6155C31.4518 21.518 29.7181 24.788 29.3531 29.1168Z" fill="#626BBF"/>
<path d="M43.5513 30.5437L41.4429 40.9074C41.4 41.1178 41.2871 41.307 41.123 41.4435C40.9589 41.5799 40.7535 41.6554 40.5411 41.6572L26.0225 41.7823C25.884 41.7834 25.747 41.7533 25.6215 41.694C25.4961 41.6347 25.3853 41.5478 25.2973 41.4396C25.2093 41.3314 25.1464 41.2047 25.1131 41.0687C25.0799 40.9328 25.0771 40.791 25.105 40.6538L27.2134 30.2902C27.2563 30.0797 27.3692 29.8905 27.5333 29.7541C27.6974 29.6176 27.9027 29.5422 28.1152 29.5403L42.6337 29.4153C42.7722 29.4141 42.9092 29.4443 43.0347 29.5036C43.1602 29.5628 43.271 29.6498 43.3589 29.758C43.4469 29.8661 43.5098 29.9929 43.5431 30.1288C43.5764 30.2648 43.5792 30.4065 43.5513 30.5437Z" fill="#292A2E"/>
<path d="M30.0129 37.9051C30.0207 38.0416 29.9794 38.1763 29.8967 38.2844C29.814 38.3926 29.6955 38.4669 29.5629 38.4936L29.116 38.5932C29.124 38.5959 29.1312 38.6005 29.137 38.6066C29.1428 38.6127 29.147 38.6202 29.1493 38.6284C29.1504 38.638 29.1483 38.6478 29.1433 38.656C29.2507 38.6865 29.3461 38.7501 29.4161 38.838C29.4862 38.9259 29.5274 39.0336 29.5342 39.1463C29.5348 39.2776 29.4916 39.4053 29.4116 39.5087C29.3316 39.6122 29.2194 39.6853 29.0933 39.7163L25.3192 40.5636C25.1262 40.6074 24.9291 40.6295 24.7313 40.6295C24.2908 40.6294 23.8569 40.5209 23.4671 40.3135C23.0772 40.1061 22.7431 39.806 22.4935 39.439C22.2288 39.0506 22.1244 38.5732 22.2025 38.1082C22.2806 37.6432 22.5351 37.2274 22.9117 36.9492L26.1222 34.5758C26.1928 34.5235 26.275 34.4894 26.3615 34.4762L26.0661 35.9272L26.1449 35.9088L26.1615 35.9057L28.6236 35.3986C28.8978 35.3373 29.2736 35.4384 29.322 35.7541C29.348 35.8749 29.3328 36.0011 29.2789 36.1121C29.225 36.2231 29.1355 36.3123 29.0251 36.3654C29.0266 36.3669 29.0296 36.3685 29.0296 36.3715C29.0296 36.3746 29.0281 36.3761 29.0281 36.3792L29.4539 36.2842C29.5317 36.2667 29.6125 36.2669 29.6903 36.2848C29.7681 36.3027 29.841 36.3379 29.9037 36.3877C29.9665 36.4375 30.0175 36.5008 30.0532 36.573C30.0888 36.6452 30.1082 36.7245 30.1099 36.8051C30.1099 36.9339 30.0658 37.0588 29.9852 37.1584C29.9045 37.2581 29.7923 37.3266 29.6675 37.3521L29.4842 37.3935C29.4826 37.3996 29.4842 37.4057 29.4811 37.4103C29.6147 37.4113 29.7431 37.4626 29.8414 37.554C29.9397 37.6454 30.0008 37.7706 30.0129 37.9051Z" fill="#FAA896"/>
<g opacity="0.25">
<path d="M26.577 36.8821C26.5799 36.8948 26.5877 36.906 26.5986 36.9131C26.6095 36.9202 26.6228 36.9227 26.6355 36.9201L28.9911 36.4316C28.9978 36.4305 29.0041 36.4281 29.0098 36.4245C29.0155 36.4208 29.0204 36.4161 29.0243 36.4105C29.0281 36.4049 29.0307 36.3986 29.0321 36.3919C29.0334 36.3852 29.0334 36.3784 29.0321 36.3717C29.0307 36.365 29.0281 36.3587 29.0242 36.3531C29.0204 36.3475 29.0155 36.3428 29.0098 36.3392C29.0041 36.3355 28.9977 36.3331 28.9911 36.3321C28.9845 36.331 28.9777 36.3313 28.9711 36.3329L26.6155 36.8215C26.6025 36.8242 26.5912 36.832 26.5839 36.8432C26.5767 36.8543 26.5741 36.8679 26.5767 36.881L26.577 36.8821Z" fill="#0C0C0C"/>
</g>
<g opacity="0.25">
<path d="M26.7616 37.9386C26.7645 37.9514 26.7722 37.9626 26.7831 37.9697C26.7941 37.9768 26.8073 37.9793 26.82 37.9766L29.449 37.4315C29.462 37.4288 29.4733 37.421 29.4805 37.4098C29.4878 37.3987 29.4904 37.3851 29.4878 37.372C29.4847 37.3592 29.477 37.348 29.4661 37.3407C29.4552 37.3335 29.4419 37.3306 29.429 37.3328L26.8 37.8781C26.7871 37.8808 26.7758 37.8886 26.7685 37.8997C26.7612 37.9109 26.7586 37.9245 26.7613 37.9376L26.7616 37.9386Z" fill="#0C0C0C"/>
</g>
<g opacity="0.25">
<path d="M26.9549 39.0842C26.9579 39.097 26.9656 39.1081 26.9765 39.1152C26.9875 39.1223 27.0007 39.1248 27.0134 39.1222L29.1104 38.6874C29.1171 38.6863 29.1234 38.6839 29.1291 38.6803C29.1348 38.6766 29.1397 38.6719 29.1436 38.6663C29.1474 38.6607 29.15 38.6544 29.1514 38.6477C29.1527 38.641 29.1527 38.6342 29.1514 38.6275C29.15 38.6208 29.1474 38.6145 29.1435 38.6089C29.1397 38.6033 29.1348 38.5986 29.1291 38.595C29.1234 38.5913 29.117 38.5889 29.1104 38.5878C29.1038 38.5868 29.097 38.5871 29.0904 38.5887L26.9934 39.0237C26.987 39.025 26.9809 39.0276 26.9755 39.0313C26.9701 39.035 26.9655 39.0397 26.9619 39.0452C26.9583 39.0507 26.9558 39.0569 26.9545 39.0634C26.9533 39.0699 26.9533 39.0765 26.9546 39.083L26.9549 39.0842Z" fill="#0C0C0C"/>
</g>
<path d="M25.0855 42.0738L4.60979 45.8155C3.97084 45.8859 3.32446 45.8056 2.72137 45.5808C2.11829 45.3561 1.5749 44.9931 1.13386 44.5203C0.692818 44.0475 0.366118 43.4778 0.179398 42.8558C-0.00732284 42.2339 -0.0489838 41.5767 0.0576839 40.9357L2.92409 23.7053C3.10712 22.6051 3.71485 21.6235 4.61357 20.9764C5.51229 20.3293 6.62839 20.0698 7.71634 20.2548C8.80429 20.4399 9.77497 21.0545 10.4148 21.9634C11.0547 22.8722 11.3114 24.0009 11.1283 25.1011L9.17386 36.9625L24.1853 35.0564L25.0855 42.0738Z" fill="#626BBF"/>
<path d="M4.60977 45.8922C4.59087 45.8921 4.57266 45.8849 4.55873 45.872C4.5448 45.8591 4.53615 45.8414 4.53448 45.8223C4.53281 45.8033 4.53824 45.7843 4.5497 45.7691C4.56117 45.7539 4.57784 45.7436 4.59644 45.7402L25.0013 42.0112L24.1204 35.1415L9.18324 37.0385C9.17153 37.0401 9.15961 37.0389 9.14847 37.0349C9.13733 37.0309 9.12728 37.0243 9.11915 37.0157C9.11095 37.0071 9.10486 36.9966 9.10136 36.9852C9.09787 36.9738 9.09706 36.9617 9.099 36.9499L10.3414 29.3692C10.343 29.3592 10.3465 29.3497 10.3518 29.3412C10.357 29.3326 10.3639 29.3252 10.372 29.3194C10.3801 29.3135 10.3892 29.3093 10.3989 29.307C10.4086 29.3047 10.4187 29.3044 10.4285 29.3061C10.4383 29.3077 10.4477 29.3113 10.4562 29.3166C10.4647 29.3219 10.472 29.3289 10.4778 29.3371C10.4836 29.3453 10.4878 29.3546 10.49 29.3644C10.4923 29.3742 10.4926 29.3844 10.4909 29.3943L9.26505 36.8736L24.176 34.9799C24.1959 34.9773 24.2159 34.9829 24.2318 34.9952C24.2476 35.0076 24.258 35.0258 24.2606 35.0459L25.1608 42.0633C25.1634 42.0828 25.1584 42.1025 25.1469 42.1184C25.1354 42.1343 25.1183 42.1451 25.0992 42.1486L4.62341 45.8911C4.61889 45.8918 4.61433 45.8921 4.60977 45.8922Z" fill="#0C0C0C"/>
<path d="M9.16185 36.8871L7.84473 37.1003L7.8687 37.2517L9.18582 37.0385L9.16185 36.8871Z" fill="#0C0C0C"/>
<path d="M104.905 118.21H2.09464C2.06954 118.21 2.04547 118.199 2.02772 118.179C2.00997 118.16 2 118.133 2 118.105C2 118.077 2.00997 118.05 2.02772 118.031C2.04547 118.011 2.06954 118 2.09464 118H104.905C104.918 118 104.93 118.003 104.942 118.008C104.953 118.013 104.963 118.021 104.972 118.031C104.981 118.041 104.988 118.052 104.993 118.065C104.998 118.078 105 118.091 105 118.105C105 118.119 104.998 118.132 104.993 118.145C104.988 118.158 104.981 118.169 104.972 118.179C104.963 118.189 104.953 118.197 104.942 118.202C104.93 118.207 104.918 118.21 104.905 118.21Z" fill="#292A2E"/>
</svg>
