<svg width="147" height="113" viewBox="0 0 147 113" fill="none" xmlns="http://www.w3.org/2000/svg">
<path d="M136.154 69.7731C136.177 85.2074 131.185 100.21 121.965 112.413H14.1889C4.96879 100.21 -0.0234813 85.2074 8.30391e-05 69.7731C8.30391e-05 31.2372 30.4801 0 68.0784 0C105.677 0 136.154 31.2372 136.154 69.7731Z" fill="white"/>
<path opacity="0.1" d="M136.154 69.7731C136.177 85.2074 131.185 100.21 121.965 112.413H14.1889C4.96879 100.21 -0.0234813 85.2074 8.30391e-05 69.7731C8.30391e-05 31.2372 30.4801 0 68.0784 0C105.677 0 136.154 31.2372 136.154 69.7731Z" fill="#626BBF"/>
<path d="M137.228 0.892303H83.2194C77.9516 0.892303 73.6812 5.26925 73.6812 10.6685V10.6687C73.6812 16.0679 77.9516 20.4449 83.2194 20.4449H137.228C142.496 20.4449 146.766 16.0679 146.766 10.6687V10.6685C146.766 5.26925 142.496 0.892303 137.228 0.892303Z" fill="white"/>
<path d="M137.228 20.6378H83.2192C80.6475 20.6255 78.1851 19.5697 76.3709 17.7014C74.5566 15.8332 73.5381 13.3045 73.5381 10.6686C73.5381 8.03262 74.5566 5.50396 76.3709 3.6357C78.1851 1.76744 80.6475 0.71166 83.2192 0.699298H137.228C138.509 0.693139 139.779 0.946456 140.964 1.4447C142.149 1.94294 143.227 2.67629 144.135 3.60264C145.043 4.52898 145.764 5.63006 146.255 6.84265C146.747 8.05523 147 9.35543 147 10.6686C147 11.9817 146.747 13.2819 146.255 14.4945C145.764 15.7071 145.043 16.8081 144.135 17.7345C143.227 18.6608 142.149 19.3942 140.964 19.8924C139.779 20.3907 138.509 20.644 137.228 20.6378ZM83.2192 1.08525C80.7395 1.08525 78.3614 2.09488 76.6079 3.89204C74.8545 5.6892 73.8695 8.12666 73.8695 10.6682C73.8695 13.2098 74.8545 15.6473 76.6079 17.4444C78.3614 19.2416 80.7395 20.2512 83.2192 20.2512H137.228C139.707 20.2512 142.086 19.2416 143.839 17.4444C145.592 15.6473 146.578 13.2098 146.578 10.6682C146.578 8.12666 145.592 5.6892 143.839 3.89204C142.086 2.09488 139.707 1.08525 137.228 1.08525H83.2192Z" fill="#262626"/>
<path d="M83.6584 5.5318L85.266 8.79221L88.7937 9.34898L86.2701 11.8476L86.9075 15.4194L83.7399 13.7032L80.6061 15.3538L81.1722 11.7945L78.5981 9.24307L82.1153 8.75953L83.6584 5.5318Z" fill="#F3B044"/>
<path d="M96.758 5.5318L98.3656 8.79221L101.893 9.34898L99.3697 11.8476L100.007 15.4194L96.8395 13.7032L93.7057 15.3538L94.2718 11.7945L91.6978 9.24307L95.2152 8.75953L96.758 5.5318Z" fill="#F3B044"/>
<path d="M109.857 5.5318L111.465 8.79221L114.993 9.34898L112.469 11.8476L113.106 15.4194L109.939 13.7032L106.805 15.3538L107.371 11.7945L104.797 9.24307L108.314 8.75953L109.857 5.5318Z" fill="#F3B044"/>
<path d="M122.956 5.5318L124.564 8.79221L128.092 9.34898L125.568 11.8476L126.205 15.4194L123.038 13.7032L119.904 15.3538L120.47 11.7945L117.896 9.24307L121.413 8.75953L122.956 5.5318Z" fill="#F3B044"/>
<path opacity="0.2" d="M136.056 5.5318L137.663 8.79221L141.191 9.34898L138.668 11.8476L139.305 15.4194L136.137 13.7032L133.004 15.3538L133.57 11.7945L130.996 9.24307L134.513 8.75953L136.056 5.5318Z" fill="#626BBF"/>
<path d="M38.9733 23.0994C38.9733 23.0994 38.392 30.1544 36.7971 32.689C32.2059 39.9854 30.7692 48.2614 35.1643 52.6786C39.5593 57.0957 68.0682 57.6733 70.4005 47.7395C72.3642 39.3762 68.4775 38.4026 67.648 31.4587C67.2725 28.317 66.2044 21.7238 66.2044 21.7238" fill="#0A0A0A"/>
<path d="M63.2993 46.0382C63.2499 46.0316 62.7036 55.3207 52.175 54.5109C44.886 53.9513 42.2871 46.0244 42.1191 46.0244C42.905 45.8531 44.2285 45.6042 44.5775 45.4134C45.7253 44.7812 47.1449 44.1236 47.5153 41.839C47.7292 40.5232 47.3668 33.7862 47.4783 32.4534L58.6667 35.0129C58.5103 37.8264 57.4162 44.3492 61.2513 45.5035C61.8902 45.6959 62.5776 45.8713 63.2993 46.0382Z" fill="#FAA896"/>
<path opacity="0.5" d="M58.825 42.8392C58.6498 42.2604 58.5369 41.6635 58.4885 41.0595C58.3655 39.681 58.39 38.2928 58.5617 36.9197C56.2878 36.6051 54.1456 35.6431 52.3784 34.1431C52.1707 34.9294 51.0281 38.3657 51.3446 39.1131C51.9419 40.5248 54.7514 42.8392 58.825 42.8392Z" fill="#0C0C0C"/>
<path d="M57.2309 39.9441C52.8128 40.3014 47.1375 38.3894 46.0596 32.3479L45.0867 26.8968C44.0088 20.8554 46.2307 15.3775 51.7807 14.3372C57.3306 13.2969 62.3528 17.4167 63.4309 23.4581L63.8614 25.8716C64.2751 28.1897 65.1136 39.3067 57.2309 39.9441Z" fill="#FAA896"/>
<path d="M59.035 31.5883L59.0459 31.5866C59.2707 31.5427 59.493 31.4862 59.7117 31.4173C60.0384 31.3118 60.4663 31.1368 60.4126 30.8346C60.3512 30.4903 58.7684 26.9488 58.5883 26.546C58.5717 26.5121 58.543 26.4862 58.5081 26.4736C58.4733 26.461 58.435 26.4628 58.4014 26.4786C58.3679 26.4944 58.3416 26.523 58.3281 26.5582C58.3147 26.5935 58.3151 26.6327 58.3294 26.6677C59.0044 28.1759 60.0911 30.6555 60.1324 30.8872C60.0951 30.9943 59.5528 31.1943 58.9948 31.2995C58.9589 31.3066 58.927 31.3277 58.9058 31.3582C58.8846 31.3887 58.8757 31.4264 58.8808 31.4635C58.886 31.5006 58.9049 31.5343 58.9336 31.5575C58.9623 31.5807 58.9986 31.5918 59.035 31.5883Z" fill="#0C0C0C"/>
<path d="M58.198 34.1885C59.1029 34.0738 59.9689 33.7427 60.7261 33.2221C60.7578 33.2011 60.7801 33.1682 60.7882 33.1304C60.7962 33.0926 60.7892 33.0531 60.7688 33.0205C60.7484 32.988 60.7163 32.9651 60.6794 32.9569C60.6425 32.9486 60.604 32.9558 60.5722 32.9767C58.9338 34.056 57.3111 34.2222 55.8798 33.4569C55.8509 33.4406 55.8211 33.4259 55.7906 33.4131C55.7551 33.3997 55.716 33.4013 55.6817 33.4176C55.6474 33.4338 55.6209 33.4634 55.6079 33.4997C55.5948 33.536 55.5964 33.5761 55.6123 33.6113C55.6281 33.6464 55.6569 33.6736 55.6924 33.6869C55.7035 33.6918 55.7223 33.7021 55.7482 33.7161C56.5008 34.1198 57.3537 34.2843 58.198 34.1885Z" fill="#0C0C0C"/>
<path d="M40.6407 28.7665L45.6155 27.8639C49.3884 26.3269 50.5666 19.6565 50.5666 19.6565C50.5666 19.6565 55.1106 24.2517 66.2043 21.7244C66.2043 21.7244 64.078 5.87565 47.684 10.3768C42.3979 11.8281 38.5777 17.2548 39.0059 24.5429C39.3058 29.6496 40.6407 28.7665 40.6407 28.7665Z" fill="#0A0A0A"/>
<path d="M46.7327 34.124C45.0461 34.4402 43.3488 32.847 43.0403 31.1184C42.7317 29.3897 43.929 28.1799 45.6156 27.8639L46.6914 28.8592L48.1826 33.852L46.7327 34.124Z" fill="#FAA896"/>
<path d="M59.8276 23.7675C60.253 23.4706 60.7476 23.2944 61.261 23.2568C61.5191 23.2362 61.7788 23.2556 62.0313 23.3143C62.2859 23.3723 62.5325 23.463 62.7651 23.584L62.7724 23.5875C62.7982 23.5994 62.8274 23.6006 62.854 23.5908C62.8806 23.581 62.9024 23.561 62.9149 23.535C62.9274 23.509 62.9295 23.4791 62.9208 23.4515C62.9122 23.424 62.8934 23.4009 62.8685 23.3873C62.6222 23.2482 62.3599 23.1414 62.0876 23.0695C61.8133 22.996 61.5299 22.9651 61.2467 22.9779C60.6729 23 60.1154 23.1795 59.6324 23.4978C59.6145 23.5099 59.599 23.5254 59.5869 23.5436C59.5749 23.5618 59.5664 23.5823 59.562 23.6038C59.5576 23.6254 59.5575 23.6476 59.5615 23.6692C59.5655 23.6908 59.5736 23.7114 59.5854 23.7298C59.5971 23.7482 59.6123 23.7641 59.6301 23.7764C59.6478 23.7888 59.6678 23.7975 59.6888 23.802C59.7098 23.8065 59.7315 23.8067 59.7526 23.8026C59.7737 23.7984 59.7938 23.7901 59.8117 23.7781L59.8156 23.7754L59.8276 23.7675Z" fill="#0C0C0C"/>
<path d="M55.2878 24.3267C54.7265 24.2018 54.1429 24.2335 53.5976 24.4184C53.328 24.5081 53.073 24.6387 52.8413 24.8059C52.6105 24.9707 52.4011 25.1648 52.2178 25.3835C52.208 25.3942 52.2003 25.4067 52.1952 25.4204C52.1901 25.4341 52.1876 25.4487 52.188 25.4634C52.1888 25.493 52.2011 25.521 52.2221 25.5414C52.2431 25.5617 52.2711 25.5727 52.3 25.5719C52.3289 25.5711 52.3563 25.5585 52.3761 25.537L52.3819 25.5309C52.5585 25.3341 52.7585 25.1609 52.9773 25.0153C53.1937 24.8695 53.4304 24.7582 53.6793 24.6851C54.1737 24.5358 54.6978 24.5235 55.1984 24.6493L55.2108 24.6526C55.2528 24.6638 55.2973 24.6575 55.3348 24.635C55.3722 24.6126 55.3994 24.5758 55.4103 24.5328C55.4213 24.4898 55.4151 24.444 55.3932 24.4057C55.3712 24.3673 55.3353 24.3395 55.2934 24.3283L55.2878 24.3267Z" fill="#0C0C0C"/>
<path d="M58.382 35.5596C58.546 35.5416 58.7082 35.5093 58.8669 35.4629C58.9032 35.4525 58.934 35.4276 58.9525 35.3939C58.971 35.3601 58.9756 35.3203 58.9654 35.283C58.9552 35.2458 58.9309 35.2142 58.898 35.1953C58.8651 35.1763 58.8262 35.1716 58.7898 35.182C57.8354 35.457 57.2958 35.0814 57.2731 35.0651C57.2424 35.0427 57.2042 35.0337 57.167 35.0402C57.1298 35.0466 57.0966 35.0679 57.0747 35.0995C57.0528 35.131 57.044 35.1701 57.0503 35.2083C57.0566 35.2464 57.0774 35.2804 57.1082 35.3029C57.4911 35.5368 57.9412 35.6276 58.382 35.5596Z" fill="#0C0C0C"/>
<path d="M45.6206 27.7805C48.9754 26.5701 50.122 24.2309 50.4932 22.4816C50.7335 21.3149 50.7335 20.1096 50.4932 18.9429L50.3894 18.9701C50.6261 20.1216 50.6253 21.3111 50.3873 22.4623C50.0212 24.1829 48.8896 26.4841 45.5845 27.6775L45.6206 27.7805Z" fill="#0C0C0C"/>
<path opacity="0.1" d="M54.5636 32.0039C55.291 31.9283 55.8368 31.4238 55.7827 30.877C55.7286 30.3302 55.0951 29.9482 54.3678 30.0238C53.6404 30.0994 53.0946 30.6039 53.1487 31.1507C53.2028 31.6975 53.8363 32.0795 54.5636 32.0039Z" fill="#0C0C0C"/>
<path opacity="0.1" d="M62.2712 29.9623C62.3268 30.5083 62.9601 30.8899 63.6875 30.8153C63.8133 30.8022 63.9373 30.7757 64.0577 30.7364C64.1026 30.0873 64.1154 29.4623 64.1069 28.8834C63.9062 28.8281 63.6972 28.8117 63.4907 28.8351C62.7633 28.9097 62.2179 29.4141 62.2712 29.9623Z" fill="#0C0C0C"/>
<path d="M30.2253 101.23L28.9619 112.697H74.7692L74.0627 101.158L30.2253 101.23Z" fill="#262626"/>
<path d="M51.934 52.2022C44.6399 51.85 44.3329 45.5044 44.3329 45.5044C44.3329 45.5044 40.7188 45.7439 38.3161 46.077C34.3828 46.6224 30.213 48.0068 28.3206 51.3586C26.9603 53.7688 26.6327 54.205 27.8702 67.8054C28.7663 77.6528 30.2259 101.231 30.2259 101.231L74.0633 101.159C74.0633 101.159 76.0141 70.9219 76.3821 66.4888C77.0845 58.0266 78.1932 46.0994 75.8397 45.504C73.0979 44.8104 64.1478 45.9507 61.253 45.504C61.204 45.4974 61.8673 52.6823 51.934 52.2022Z" fill="#626BBF"/>
<path d="M129.626 19.0331C129.69 18.8855 129.783 18.7527 129.898 18.643C130.014 18.5332 130.15 18.4488 130.298 18.3947C130.447 18.3407 130.604 18.3182 130.761 18.3286C130.919 18.3391 131.072 18.3822 131.212 18.4555C131.479 18.6068 131.68 18.8564 131.774 19.1538C131.869 19.4512 131.849 19.7742 131.72 20.0574L131.086 21.5246L135.161 17.836C135.607 17.4178 136.416 17.197 136.841 17.7408C137.017 17.9391 137.123 18.193 137.14 18.4608C137.158 18.7287 137.087 18.9948 136.938 19.2157C136.943 19.2192 136.948 19.2233 136.953 19.228C136.955 19.2318 136.957 19.2358 136.959 19.2399L137.647 18.5949C137.774 18.4763 137.925 18.388 138.089 18.3363C138.253 18.2846 138.426 18.2709 138.596 18.296C138.766 18.3212 138.928 18.3847 139.071 18.4818C139.214 18.579 139.334 18.7075 139.423 18.8581C139.56 19.1014 139.61 19.3855 139.566 19.6625C139.521 19.9395 139.385 20.1922 139.18 20.378L138.887 20.6523C138.891 20.665 138.893 20.6784 138.892 20.6918C139.129 20.5545 139.406 20.5074 139.674 20.5586C139.942 20.6099 140.183 20.7563 140.356 20.972C140.542 21.2205 140.628 21.5317 140.598 21.8429C140.568 22.154 140.423 22.4418 140.194 22.6481L139.474 23.3226C139.491 23.3204 139.509 23.3223 139.525 23.3283C139.541 23.3342 139.555 23.344 139.566 23.3568C139.58 23.3727 139.588 23.3921 139.59 23.4127C139.83 23.3519 140.083 23.3714 140.312 23.4685C140.541 23.5656 140.733 23.7351 140.861 23.9522C140.998 24.1955 141.048 24.4796 141.004 24.7566C140.959 25.0336 140.823 25.2864 140.617 25.4721L134.483 31.2238C133.624 32.0284 132.551 32.5519 131.401 32.7273C130.25 32.9026 129.075 32.7218 128.025 32.208L124.646 30.5537L129.626 19.0331Z" fill="#FAA896"/>
<g opacity="0.2">
<path d="M132.923 22.8882C132.942 22.9093 132.969 22.9219 132.997 22.9233C133.025 22.9247 133.052 22.9147 133.073 22.8956L136.944 19.3828C136.955 19.3733 136.964 19.3617 136.97 19.3487C136.976 19.3358 136.979 19.3217 136.98 19.3074C136.981 19.293 136.979 19.2786 136.975 19.265C136.97 19.2513 136.963 19.2388 136.954 19.228C136.944 19.2172 136.933 19.2084 136.92 19.2021C136.908 19.1958 136.894 19.1921 136.88 19.1912C136.866 19.1903 136.852 19.1923 136.839 19.197C136.825 19.2017 136.813 19.209 136.803 19.2186L132.93 22.7316C132.92 22.7412 132.911 22.7527 132.905 22.7657C132.899 22.7786 132.895 22.7927 132.894 22.8071C132.893 22.8215 132.895 22.8359 132.9 22.8495C132.905 22.8631 132.912 22.8756 132.921 22.8864L132.923 22.8882Z" fill="#0C0C0C"/>
</g>
<g opacity="0.2">
<path d="M134.388 24.6809C134.407 24.702 134.433 24.7147 134.461 24.7161C134.489 24.7175 134.516 24.7076 134.537 24.6885L138.858 20.7678C138.868 20.7583 138.877 20.7467 138.883 20.7338C138.889 20.7208 138.893 20.7068 138.894 20.6924C138.895 20.678 138.893 20.6636 138.888 20.65C138.883 20.6364 138.876 20.6238 138.867 20.613C138.848 20.5921 138.821 20.5795 138.793 20.5778C138.765 20.5761 138.738 20.5854 138.716 20.6038L134.395 24.5243C134.385 24.5338 134.376 24.5454 134.37 24.5584C134.364 24.5713 134.36 24.5854 134.36 24.5998C134.359 24.6142 134.361 24.6286 134.365 24.6422C134.37 24.6558 134.377 24.6683 134.386 24.6791L134.388 24.6809Z" fill="#0C0C0C"/>
</g>
<g opacity="0.2">
<path d="M135.963 26.6319C135.982 26.653 136.008 26.6657 136.036 26.6671C136.064 26.6685 136.092 26.6586 136.113 26.6395L139.559 23.5122C139.58 23.4929 139.593 23.4658 139.595 23.4367C139.597 23.4077 139.587 23.3791 139.568 23.3573C139.549 23.3355 139.523 23.3223 139.494 23.3206C139.466 23.3188 139.438 23.3287 139.417 23.348L135.971 26.4753C135.96 26.4848 135.952 26.4964 135.945 26.5094C135.939 26.5223 135.936 26.5364 135.935 26.5507C135.934 26.5651 135.936 26.5795 135.94 26.5932C135.945 26.6068 135.952 26.6193 135.961 26.6301L135.963 26.6319Z" fill="#0C0C0C"/>
</g>
<path d="M125.719 23.0994L102.487 42.605L70.3273 45.5786C68.265 45.7557 66.3492 46.7428 64.9802 48.3337C63.6112 49.9245 62.895 51.996 62.9811 54.1154C63.0672 56.2348 63.949 58.2381 65.4423 59.7067C66.9356 61.1754 68.9249 61.9958 70.9945 61.9966C71.2212 61.9966 71.4495 61.9867 71.6791 61.9668L106.363 58.7744C108.006 58.6319 109.566 57.9742 110.831 56.8907L135.162 34.7671L125.719 23.0994Z" fill="#626BBF"/>
<path d="M128.165 17.886L133.003 16.4961L134.717 11.647L137.401 15.9062L142.394 15.9771L139.214 19.9993L140.587 24.8923L135.938 23.1187L131.793 26.0719L132.1 20.9536L128.165 17.886Z" fill="#F3B044"/>
<path d="M130.872 22.0726L131.72 20.0574C131.85 19.7741 131.869 19.4512 131.775 19.1538C131.681 18.8564 131.48 18.6068 131.213 18.4554C131.073 18.3822 130.919 18.339 130.762 18.3286C130.605 18.3182 130.447 18.3406 130.299 18.3947C130.15 18.4487 130.014 18.5332 129.899 18.643C129.783 18.7527 129.691 18.8855 129.627 19.0331" fill="#FAA896"/>
<path d="M70.2162 82.5432C70.1931 82.8548 70.0551 83.1457 69.8303 83.3569C69.6055 83.5681 69.3108 83.6838 69.0059 83.6804L68.0309 83.6925C68.0448 83.7023 68.0562 83.7154 68.0641 83.7306C68.072 83.7459 68.0762 83.7629 68.0763 83.7802C68.0765 83.8012 68.0702 83.8217 68.0583 83.8388C68.277 83.9576 68.4528 84.1451 68.56 84.3738C68.6672 84.6024 68.7001 84.8603 68.6539 85.1095C68.5969 85.3841 68.4493 85.6301 68.236 85.8062C68.0226 85.9822 67.7566 86.0776 67.4828 86.0762L59.1707 86.1683C58.0076 86.1819 56.8671 85.8391 55.8955 85.1837C54.9239 84.5282 54.1656 83.5902 53.7178 82.4899L52.2734 78.9471L56.6969 77.9822L56.8026 76.852L63.4816 73.7641C63.6251 73.6977 63.7804 73.662 63.9378 73.659C64.0952 73.6561 64.2516 73.6861 64.3974 73.7472C64.5432 73.8083 64.6753 73.8991 64.7856 74.0142C64.896 74.1293 64.9824 74.2663 65.0394 74.4167C65.1399 74.712 65.1273 75.0353 65.0042 75.3214C64.8811 75.6075 64.6566 75.8351 64.3762 75.9581L62.9478 76.6178L68.385 76.6553C68.9905 76.6482 69.7363 77.0357 69.6989 77.7298C69.702 77.9984 69.6161 78.2601 69.4553 78.4722C69.2944 78.6843 69.0681 78.8341 68.8133 78.8973C68.8133 78.9041 68.8146 78.9089 68.815 78.9159L68.8116 78.9284L69.744 78.9183C69.9159 78.9163 70.0861 78.9534 70.2422 79.027C70.3984 79.1006 70.5366 79.2089 70.6469 79.344C70.7572 79.4791 70.8368 79.6376 70.88 79.8081C70.9232 79.9786 70.9289 80.1569 70.8966 80.3299C70.8403 80.6042 70.6933 80.8501 70.4803 81.0259C70.2674 81.2018 70.0017 81.2968 69.7282 81.2948L69.3294 81.3007C69.3238 81.3116 69.3173 81.3219 69.3099 81.3316C69.5757 81.3924 69.8122 81.5471 69.9779 81.7686C70.1436 81.9901 70.2279 82.2643 70.2162 82.5432Z" fill="#FAA896"/>
<g opacity="0.2">
<path d="M63.4307 78.89C63.4312 78.9188 63.4427 78.9462 63.4627 78.9663C63.4827 78.9864 63.5096 78.9977 63.5376 78.9977L68.7083 79.0253C68.7366 79.0253 68.7638 79.0138 68.7839 78.9932C68.804 78.9727 68.8152 78.9448 68.8152 78.9157C68.8152 78.8866 68.804 78.8587 68.7839 78.8382C68.7638 78.8176 68.7366 78.806 68.7083 78.806L63.5376 78.7784C63.5093 78.7784 63.4821 78.79 63.462 78.8105C63.4419 78.8311 63.4307 78.859 63.4307 78.8881V78.89Z" fill="#0C0C0C"/>
</g>
<g opacity="0.2">
<path d="M63.3555 81.227C63.356 81.2558 63.3675 81.2831 63.3875 81.3033C63.4075 81.3234 63.4344 81.3347 63.4624 81.3347L69.2328 81.3656C69.2611 81.3656 69.2884 81.3541 69.3084 81.3335C69.3285 81.3129 69.3398 81.2851 69.3398 81.256C69.3388 81.2272 69.3273 81.1998 69.3074 81.1795C69.2875 81.1591 69.2609 81.1473 69.2328 81.1463L63.4624 81.1156C63.4341 81.1156 63.4069 81.1272 63.3868 81.1477C63.3667 81.1683 63.3555 81.1962 63.3555 81.2253V81.227Z" fill="#0C0C0C"/>
</g>
<g opacity="0.2">
<path d="M63.2598 83.7576C63.2603 83.7864 63.2718 83.8138 63.2918 83.8339C63.3118 83.854 63.3387 83.8653 63.3667 83.8653L67.9695 83.8899C67.9979 83.8899 68.0251 83.8783 68.0452 83.8578C68.0652 83.8372 68.0765 83.8093 68.0765 83.7802C68.0765 83.7512 68.0652 83.7233 68.0452 83.7027C68.0251 83.6821 67.9979 83.6706 67.9695 83.6706L63.3667 83.646C63.3384 83.646 63.3112 83.6576 63.2911 83.6781C63.271 83.6987 63.2598 83.7266 63.2598 83.7557V83.7576Z" fill="#0C0C0C"/>
</g>
<path d="M58.7418 88.704L23.939 95.0581C22.4769 95.4559 20.9348 95.4219 19.4907 94.96C18.0465 94.4981 16.7593 93.6272 15.7773 92.4477C14.7954 91.2682 14.1588 89.8282 13.941 88.2938C13.7232 86.7594 13.9331 85.1932 14.5465 83.7759L27.2209 53.5577C29.0181 49.4061 33.46 47.5335 37.5099 49.3754C39.4549 50.2598 40.9776 51.8999 41.7428 53.9349C42.508 55.9699 42.4532 58.2331 41.5904 60.2267L34.1474 78.3103L57.423 75.1404L58.7418 88.704Z" fill="#626BBF"/>
<path d="M29.9366 94.1145C29.9466 94.1146 29.9566 94.1131 29.9661 94.1101L58.7712 88.8094C58.7979 88.8015 58.8206 88.7832 58.8344 88.7584C58.8482 88.7335 58.852 88.7042 58.845 88.6765L57.5264 74.674C57.5193 74.6462 57.502 74.6223 57.478 74.6075C57.454 74.5927 57.4252 74.5882 57.398 74.5948L34.3398 78.1522L41.685 60.2741C41.6957 60.2482 41.6962 60.219 41.6865 60.1927C41.6767 60.1664 41.6575 60.145 41.6328 60.1328C41.6081 60.1206 41.5797 60.1186 41.5536 60.1272C41.5275 60.1358 41.5056 60.1544 41.4925 60.1791L34.0509 78.2627C34.0424 78.2813 34.0392 78.302 34.0416 78.3224C34.0439 78.3428 34.0519 78.3621 34.0645 78.3781C34.077 78.3941 34.0938 78.4061 34.1127 78.4129C34.1317 78.4196 34.1521 78.4208 34.1716 78.4162L57.3456 74.8314L58.6115 88.6274L29.9069 93.9C29.882 93.9073 29.8605 93.9235 29.8464 93.9457C29.8323 93.968 29.8265 93.9947 29.8302 94.0209C29.8338 94.0471 29.8466 94.0712 29.8661 94.0885C29.8857 94.1058 29.9107 94.1153 29.9366 94.1152V94.1145Z" fill="#0C0C0C"/>
<path d="M31.2662 78.8144C31.2739 78.8144 31.2815 78.8135 31.2889 78.8118L34.1698 78.4171C34.1837 78.4141 34.1968 78.4084 34.2085 78.4002C34.2201 78.392 34.2301 78.3816 34.2378 78.3694C34.2455 78.3573 34.2508 78.3437 34.2533 78.3294C34.2559 78.3152 34.2556 78.3005 34.2526 78.2864C34.2496 78.2722 34.2439 78.2588 34.2358 78.2469C34.2277 78.235 34.2174 78.2249 34.2054 78.2172C34.1935 78.2094 34.1802 78.2041 34.1662 78.2017C34.1523 78.1992 34.138 78.1996 34.1242 78.2028L31.2434 78.5976C31.2177 78.6034 31.195 78.6188 31.1797 78.6407C31.1644 78.6626 31.1575 78.6896 31.1603 78.7164C31.1631 78.7432 31.1755 78.768 31.195 78.786C31.2146 78.8041 31.2399 78.8141 31.2662 78.8142V78.8144Z" fill="#0C0C0C"/>
<path d="M76.7894 61.6335C76.8164 61.6336 76.8424 61.6232 76.8622 61.6045C76.8821 61.5857 76.8943 61.56 76.8964 61.5324L77.3731 55.2083C77.3753 55.1792 77.3661 55.1504 77.3476 55.1283C77.329 55.1061 77.3027 55.0924 77.2743 55.0902C77.246 55.088 77.2179 55.0974 77.1963 55.1163C77.1747 55.1353 77.1613 55.1623 77.1591 55.1914L76.6824 61.5155C76.6803 61.5445 76.6895 61.5731 76.7079 61.5951C76.7264 61.6172 76.7526 61.6308 76.7808 61.6331C76.7837 61.6334 76.7865 61.6336 76.7894 61.6335Z" fill="#0C0C0C"/>
<path d="M62.2047 25.8421C62.5885 25.8421 62.8996 25.5232 62.8996 25.1298C62.8996 24.7364 62.5885 24.4175 62.2047 24.4175C61.8209 24.4175 61.5098 24.7364 61.5098 25.1298C61.5098 25.5232 61.8209 25.8421 62.2047 25.8421Z" fill="#0C0C0C"/>
<path d="M55.1612 27.0617C55.545 27.0617 55.8562 26.7428 55.8562 26.3495C55.8562 25.9561 55.545 25.6372 55.1612 25.6372C54.7774 25.6372 54.4663 25.9561 54.4663 26.3495C54.4663 26.7428 54.7774 27.0617 55.1612 27.0617Z" fill="#0C0C0C"/>
<path d="M12.8634 112.916H123.291C123.348 112.916 123.402 112.893 123.442 112.852C123.482 112.811 123.505 112.755 123.505 112.697C123.505 112.639 123.482 112.583 123.442 112.542C123.402 112.501 123.348 112.477 123.291 112.477H12.8634C12.8066 112.477 12.7522 112.501 12.7121 112.542C12.672 112.583 12.6494 112.639 12.6494 112.697C12.6494 112.755 12.672 112.811 12.7121 112.852C12.7522 112.893 12.8066 112.916 12.8634 112.916Z" fill="#292A2E"/>
</svg>
