<svg width="16" height="16" viewBox="0 0 16 16" fill="none" xmlns="http://www.w3.org/2000/svg">
<path d="M8 1.4978C6.41698 1.49787 4.88564 2.06121 3.67997 3.08703C2.47431 4.11286 1.673 5.53422 1.41942 7.09679C1.16584 8.65936 1.47654 10.2612 2.29593 11.6156C3.11532 12.9701 4.38992 13.9888 5.89168 14.4895C6.22501 14.5478 6.35001 14.3478 6.35001 14.1728C6.35001 14.0145 6.34167 13.4895 6.34167 12.9311C4.66666 13.2395 4.23333 12.5228 4.1 12.1478C3.95205 11.7831 3.71751 11.4599 3.41666 11.2061C3.18333 11.0811 2.85 10.7728 3.40832 10.7645C3.62152 10.7876 3.82599 10.8618 4.00442 10.9807C4.18285 11.0997 4.32997 11.2599 4.43333 11.4478C4.52451 11.6116 4.64712 11.7558 4.79412 11.8721C4.94113 11.9885 5.10965 12.0746 5.29002 12.1257C5.47039 12.1768 5.65907 12.1918 5.84525 12.1699C6.03143 12.1479 6.21144 12.0894 6.37498 11.9978C6.40384 11.6589 6.55489 11.342 6.8 11.1062C5.31666 10.9395 3.76666 10.3645 3.76666 7.81449C3.7573 7.15192 4.00179 6.51087 4.45 6.02282C4.24619 5.44697 4.27003 4.81501 4.51666 4.25616C4.51666 4.25616 5.07498 4.08115 6.35 4.93949C7.44086 4.63947 8.59247 4.63947 9.68333 4.93949C10.9583 4.07282 11.5167 4.25616 11.5167 4.25616C11.7633 4.815 11.7872 5.44697 11.5833 6.02282C12.0329 6.51004 12.2776 7.15164 12.2667 7.81449C12.2667 10.3728 10.7083 10.9395 9.225 11.1062C9.3841 11.2674 9.50663 11.461 9.58428 11.6738C9.66192 11.8866 9.69286 12.1137 9.675 12.3395C9.675 13.2312 9.66666 13.9478 9.66666 14.1728C9.66666 14.3478 9.79166 14.5562 10.125 14.4895C11.6241 13.9847 12.895 12.9636 13.7109 11.6085C14.5268 10.2534 14.8346 8.65235 14.5792 7.09129C14.3239 5.53023 13.5221 4.11072 12.317 3.08614C11.1118 2.06157 9.5818 1.49863 8 1.4978V1.4978Z" fill="#A8C7F5"/>
</svg>
