<svg width="16" height="16" viewBox="0 0 16 16" fill="none" xmlns="http://www.w3.org/2000/svg">
<path d="M8 6.34668C7.673 6.34668 7.35334 6.44364 7.08145 6.62531C6.80956 6.80698 6.59765 7.0652 6.47251 7.36731C6.34738 7.66941 6.31464 8.00184 6.37843 8.32256C6.44222 8.64327 6.59969 8.93787 6.83091 9.16909C7.06213 9.40032 7.35673 9.55778 7.67745 9.62158C7.99816 9.68537 8.33059 9.65263 8.6327 9.52749C8.93481 9.40235 9.19302 9.19044 9.37469 8.91855C9.55636 8.64666 9.65333 8.32701 9.65333 8.00001C9.65333 7.78289 9.61056 7.5679 9.52748 7.36731C9.44439 7.16672 9.3226 6.98445 9.16908 6.83093C9.01555 6.6774 8.83329 6.55562 8.6327 6.47253C8.43211 6.38944 8.21711 6.34668 8 6.34668V6.34668ZM14.62 4.71334C14.6165 4.19852 14.5217 3.68839 14.34 3.20668C14.2062 2.85418 13.9991 2.53407 13.7325 2.26747C13.4659 2.00086 13.1458 1.79382 12.7933 1.66001C12.3116 1.47832 11.8015 1.38352 11.2867 1.38001C10.4267 1.33334 10.1733 1.33334 8 1.33334C5.82666 1.33334 5.57333 1.33334 4.71333 1.38001C4.1985 1.38352 3.68838 1.47832 3.20666 1.66001C2.85417 1.79382 2.53406 2.00086 2.26745 2.26747C2.00085 2.53407 1.79381 2.85418 1.65999 3.20668C1.4783 3.68839 1.3835 4.19852 1.37999 4.71334C1.33333 5.57334 1.33333 5.82668 1.33333 8.00001C1.33333 10.1733 1.33333 10.4267 1.37999 11.2867C1.38717 11.8033 1.48184 12.315 1.65999 12.8C1.79321 13.1509 2.00008 13.4691 2.26666 13.7333C2.53212 14.0015 2.85292 14.2086 3.20666 14.34C3.68838 14.5217 4.1985 14.6165 4.71333 14.62C5.57333 14.6667 5.82666 14.6667 8 14.6667C10.1733 14.6667 10.4267 14.6667 11.2867 14.62C11.8015 14.6165 12.3116 14.5217 12.7933 14.34C13.1471 14.2086 13.4679 14.0015 13.7333 13.7333C13.9999 13.4691 14.2068 13.1509 14.34 12.8C14.5215 12.3159 14.6163 11.8037 14.62 11.2867C14.6667 10.4267 14.6667 10.1733 14.6667 8.00001C14.6667 5.82668 14.6667 5.57334 14.62 4.71334V4.71334ZM12.9267 10.0467C12.9053 10.4581 12.8175 10.8633 12.6667 11.2467C12.5372 11.5665 12.3448 11.857 12.1009 12.1009C11.857 12.3449 11.5665 12.5373 11.2467 12.6667C10.8597 12.8091 10.4522 12.8879 10.04 12.9C9.51333 12.9 9.37333 12.9 8 12.9C6.62666 12.9 6.48666 12.9 5.95999 12.9C5.54782 12.8879 5.14032 12.8091 4.75333 12.6667C4.42273 12.5438 4.12418 12.3478 3.88 12.0933C3.63844 11.8542 3.45189 11.5653 3.33333 11.2467C3.19037 10.8601 3.11373 10.4521 3.10666 10.04C3.10666 9.51334 3.10666 9.37334 3.10666 8.00001C3.10666 6.62668 3.10666 6.48668 3.10666 5.96001C3.11373 5.54789 3.19037 5.13993 3.33333 4.75334C3.45618 4.42275 3.65218 4.12419 3.90666 3.88001C4.14688 3.63976 4.4355 3.45341 4.75333 3.33334C5.14032 3.19095 5.54782 3.11215 5.95999 3.10001V3.10001C6.48666 3.10001 6.62666 3.10001 8 3.10001C9.37333 3.10001 9.51333 3.10001 10.04 3.10001C10.4522 3.11215 10.8597 3.19095 11.2467 3.33334C11.5773 3.4562 11.8758 3.65219 12.12 3.90668C12.3616 4.14584 12.5481 4.43477 12.6667 4.75334C12.8091 5.14034 12.8879 5.54783 12.9 5.96001C12.9 6.48668 12.9 6.62668 12.9 8.00001C12.9 9.37334 12.9467 9.51334 12.9267 10.04V10.0467ZM11.86 5.08668C11.7806 4.87133 11.6555 4.67577 11.4932 4.51349C11.3309 4.3512 11.1353 4.22605 10.92 4.14668C10.6243 4.04418 10.3129 3.99454 10 4.00001C9.48 4.00001 9.33333 4.00001 8 4.00001C6.66666 4.00001 6.52 4.00001 6 4.00001C5.68551 4.00308 5.37404 4.06177 5.07999 4.17334C4.86795 4.24911 4.67446 4.36915 4.51238 4.52548C4.35031 4.6818 4.22337 4.87084 4.14 5.08001C4.04318 5.37692 3.99588 5.68774 3.99999 6.00001C3.99999 6.52001 3.99999 6.66668 3.99999 8.00001C3.99999 9.33334 3.99999 9.48001 3.99999 10C4.0066 10.3141 4.06517 10.625 4.17333 10.92C4.2527 11.1354 4.37785 11.3309 4.54014 11.4932C4.70242 11.6555 4.89798 11.7806 5.11333 11.86C5.39777 11.9646 5.6971 12.0231 6 12.0333V12.0333C6.52 12.0333 6.66666 12.0333 8 12.0333C9.33333 12.0333 9.48 12.0333 10 12.0333C10.3145 12.0303 10.6259 11.9716 10.92 11.86C11.1353 11.7806 11.3309 11.6555 11.4932 11.4932C11.6555 11.3309 11.7806 11.1354 11.86 10.92C11.9716 10.626 12.0303 10.3145 12.0333 10C12.0333 9.48001 12.0333 9.33334 12.0333 8.00001C12.0333 6.66668 12.0333 6.52001 12.0333 6.00001C12.0335 5.68521 11.9747 5.37316 11.86 5.08001V5.08668ZM8 10.5467C7.66588 10.5467 7.33504 10.4808 7.02644 10.3527C6.71783 10.2246 6.43753 10.0369 6.20158 9.80037C5.96563 9.56381 5.77868 9.28301 5.65142 8.97407C5.52417 8.66514 5.45912 8.33413 5.45999 8.00001V8.00001C5.46 7.49604 5.60953 7.00341 5.88965 6.58447C6.16978 6.16553 6.56791 5.83912 7.03364 5.64657C7.49937 5.45401 8.01176 5.40397 8.50595 5.50278C9.00013 5.60158 9.45389 5.84479 9.80979 6.20162C10.1657 6.55844 10.4077 7.01284 10.5052 7.50728C10.6027 8.00172 10.5513 8.51398 10.3576 8.97921C10.1638 9.44443 9.83633 9.8417 9.41666 10.1207C8.99699 10.3998 8.50396 10.548 8 10.5467V10.5467ZM10.6667 5.95334C10.5193 5.93774 10.3829 5.86816 10.2838 5.75799C10.1847 5.64782 10.1298 5.50487 10.1298 5.35668C10.1298 5.20848 10.1847 5.06553 10.2838 4.95536C10.3829 4.8452 10.5193 4.77561 10.6667 4.76001V4.76001C10.814 4.77561 10.9504 4.8452 11.0495 4.95536C11.1487 5.06553 11.2035 5.20848 11.2035 5.35668C11.2035 5.50487 11.1487 5.64782 11.0495 5.75799C10.9504 5.86816 10.814 5.93774 10.6667 5.95334Z" fill="#A8C7F5"/>
</svg>
